%
M48
M72
T01C0.01378
T02C0.02953
T03C0.03150
T04C0.03200
T05C0.04000
T06C0.04700
%
T01
X16000Y203500
X201000Y171000
X263500Y118500
X303500Y613500
T02
X41000Y156000
X41000Y146000
X41000Y136000
T03
X58500Y33500
X68500Y33500
X78500Y33500
X88500Y33500
X98500Y33500
X108500Y33500
X118500Y33500
X128500Y33500
X138500Y33500
X148500Y33500
X158500Y33500
X168500Y33500
X178500Y33500
X188500Y33500
X198500Y33500
X198500Y93500
X188500Y93500
X178500Y93500
X168500Y93500
X158500Y93500
X148500Y93500
X138500Y93500
X128500Y93500
X118500Y93500
X108500Y93500
X98500Y93500
X88500Y93500
X78500Y93500
X68500Y93500
X58500Y93500
T04
X91000Y141000
X101000Y141000
X111000Y141000
X121000Y141000
X131000Y141000
X141000Y141000
X151000Y141000
X161000Y141000
X161000Y171000
X151000Y171000
X141000Y171000
X131000Y171000
X121000Y171000
X111000Y171000
X101000Y171000
X91000Y171000
X88500Y221000
X78500Y221000
X78500Y251000
X88500Y251000
X103500Y251000
X103500Y221000
X143500Y221000
X143500Y251000
X143500Y281000
X143500Y311000
X143500Y341000
X143500Y371000
X143500Y401000
X143500Y431000
X143500Y461000
X143500Y491000
X143500Y521000
X118500Y571000
X108500Y571000
X98500Y571000
X88500Y571000
X78500Y571000
X68500Y571000
X58500Y571000
X48500Y571000
X48500Y601000
X58500Y601000
X68500Y601000
X78500Y601000
X88500Y601000
X98500Y601000
X108500Y601000
X118500Y601000
X103500Y521000
X88500Y521000
X78500Y521000
X78500Y491000
X88500Y491000
X103500Y491000
X103500Y461000
X88500Y461000
X78500Y461000
X78500Y431000
X88500Y431000
X103500Y431000
X103500Y401000
X88500Y401000
X78500Y401000
X78500Y371000
X88500Y371000
X103500Y371000
X103500Y341000
X88500Y341000
X78500Y341000
X78500Y311000
X88500Y311000
X103500Y311000
X103500Y281000
X88500Y281000
X78500Y281000
X178500Y281000
X188500Y281000
X203500Y281000
X203500Y251000
X188500Y251000
X178500Y251000
X178500Y221000
X188500Y221000
X203500Y221000
X223500Y171000
X233500Y171000
X243500Y171000
X253500Y171000
X263500Y171000
X273500Y171000
X283500Y171000
X293500Y171000
X293500Y141000
X283500Y141000
X273500Y141000
X263500Y141000
X253500Y141000
X243500Y141000
X233500Y141000
X223500Y141000
X251000Y91000
X291000Y91000
X326000Y91000
X366000Y91000
X348500Y221000
X348500Y251000
X348500Y281000
X348500Y311000
X348500Y371000
X348500Y401000
X348500Y461000
X348500Y491000
X348500Y521000
X343500Y571000
X333500Y571000
X323500Y571000
X313500Y571000
X303500Y571000
X293500Y571000
X283500Y571000
X273500Y571000
X273500Y601000
X283500Y601000
X293500Y601000
X303500Y601000
X313500Y601000
X323500Y601000
X333500Y601000
X343500Y601000
X308500Y521000
X293500Y521000
X283500Y521000
X283500Y491000
X293500Y491000
X308500Y491000
X308500Y461000
X293500Y461000
X283500Y461000
X283500Y401000
X293500Y401000
X308500Y401000
X308500Y371000
X293500Y371000
X283500Y371000
X283500Y311000
X293500Y311000
X308500Y311000
X308500Y281000
X293500Y281000
X283500Y281000
X283500Y251000
X293500Y251000
X308500Y251000
X308500Y221000
X293500Y221000
X283500Y221000
X243500Y221000
X243500Y251000
X243500Y281000
X243500Y311000
X243500Y341000
X243500Y371000
X243500Y401000
X243500Y431000
X243500Y461000
X243500Y491000
X243500Y521000
X243500Y551000
X203500Y551000
X188500Y551000
X178500Y551000
X178500Y521000
X188500Y521000
X203500Y521000
X203500Y491000
X188500Y491000
X178500Y491000
X178500Y461000
X188500Y461000
X203500Y461000
X203500Y431000
X188500Y431000
X178500Y431000
X178500Y401000
X188500Y401000
X203500Y401000
X203500Y371000
X188500Y371000
X178500Y371000
X178500Y341000
X188500Y341000
X203500Y341000
X203500Y311000
X188500Y311000
X178500Y311000
T05
X326000Y116000
X336000Y116000
X346000Y116000
X356000Y116000
X366000Y116000
T06
X365600Y60800
X365600Y41200
X316400Y41200
X316400Y60800
X290600Y60800
X290600Y41200
X241400Y41200
X241400Y60800
M30
