G75*
%MOIN*%
%OFA0B0*%
%FSLAX25Y25*%
%IPPOS*%
%LPD*%
%AMOC8*
5,1,8,0,0,1.08239X$1,22.5*
%
%ADD10C,0.00000*%
%ADD11C,0.00600*%
%ADD12C,0.00200*%
%ADD13C,0.00500*%
%ADD14R,0.08500X0.02000*%
D10*
X0001000Y0001000D02*
X0001000Y0630921D01*
X0394701Y0630921D01*
X0394701Y0001000D01*
X0001000Y0001000D01*
X0009031Y0011000D02*
X0009033Y0011088D01*
X0009039Y0011176D01*
X0009049Y0011264D01*
X0009063Y0011352D01*
X0009080Y0011438D01*
X0009102Y0011524D01*
X0009127Y0011608D01*
X0009157Y0011692D01*
X0009189Y0011774D01*
X0009226Y0011854D01*
X0009266Y0011933D01*
X0009310Y0012010D01*
X0009357Y0012085D01*
X0009407Y0012157D01*
X0009461Y0012228D01*
X0009517Y0012295D01*
X0009577Y0012361D01*
X0009639Y0012423D01*
X0009705Y0012483D01*
X0009772Y0012539D01*
X0009843Y0012593D01*
X0009915Y0012643D01*
X0009990Y0012690D01*
X0010067Y0012734D01*
X0010146Y0012774D01*
X0010226Y0012811D01*
X0010308Y0012843D01*
X0010392Y0012873D01*
X0010476Y0012898D01*
X0010562Y0012920D01*
X0010648Y0012937D01*
X0010736Y0012951D01*
X0010824Y0012961D01*
X0010912Y0012967D01*
X0011000Y0012969D01*
X0011088Y0012967D01*
X0011176Y0012961D01*
X0011264Y0012951D01*
X0011352Y0012937D01*
X0011438Y0012920D01*
X0011524Y0012898D01*
X0011608Y0012873D01*
X0011692Y0012843D01*
X0011774Y0012811D01*
X0011854Y0012774D01*
X0011933Y0012734D01*
X0012010Y0012690D01*
X0012085Y0012643D01*
X0012157Y0012593D01*
X0012228Y0012539D01*
X0012295Y0012483D01*
X0012361Y0012423D01*
X0012423Y0012361D01*
X0012483Y0012295D01*
X0012539Y0012228D01*
X0012593Y0012157D01*
X0012643Y0012085D01*
X0012690Y0012010D01*
X0012734Y0011933D01*
X0012774Y0011854D01*
X0012811Y0011774D01*
X0012843Y0011692D01*
X0012873Y0011608D01*
X0012898Y0011524D01*
X0012920Y0011438D01*
X0012937Y0011352D01*
X0012951Y0011264D01*
X0012961Y0011176D01*
X0012967Y0011088D01*
X0012969Y0011000D01*
X0012967Y0010912D01*
X0012961Y0010824D01*
X0012951Y0010736D01*
X0012937Y0010648D01*
X0012920Y0010562D01*
X0012898Y0010476D01*
X0012873Y0010392D01*
X0012843Y0010308D01*
X0012811Y0010226D01*
X0012774Y0010146D01*
X0012734Y0010067D01*
X0012690Y0009990D01*
X0012643Y0009915D01*
X0012593Y0009843D01*
X0012539Y0009772D01*
X0012483Y0009705D01*
X0012423Y0009639D01*
X0012361Y0009577D01*
X0012295Y0009517D01*
X0012228Y0009461D01*
X0012157Y0009407D01*
X0012085Y0009357D01*
X0012010Y0009310D01*
X0011933Y0009266D01*
X0011854Y0009226D01*
X0011774Y0009189D01*
X0011692Y0009157D01*
X0011608Y0009127D01*
X0011524Y0009102D01*
X0011438Y0009080D01*
X0011352Y0009063D01*
X0011264Y0009049D01*
X0011176Y0009039D01*
X0011088Y0009033D01*
X0011000Y0009031D01*
X0010912Y0009033D01*
X0010824Y0009039D01*
X0010736Y0009049D01*
X0010648Y0009063D01*
X0010562Y0009080D01*
X0010476Y0009102D01*
X0010392Y0009127D01*
X0010308Y0009157D01*
X0010226Y0009189D01*
X0010146Y0009226D01*
X0010067Y0009266D01*
X0009990Y0009310D01*
X0009915Y0009357D01*
X0009843Y0009407D01*
X0009772Y0009461D01*
X0009705Y0009517D01*
X0009639Y0009577D01*
X0009577Y0009639D01*
X0009517Y0009705D01*
X0009461Y0009772D01*
X0009407Y0009843D01*
X0009357Y0009915D01*
X0009310Y0009990D01*
X0009266Y0010067D01*
X0009226Y0010146D01*
X0009189Y0010226D01*
X0009157Y0010308D01*
X0009127Y0010392D01*
X0009102Y0010476D01*
X0009080Y0010562D01*
X0009063Y0010648D01*
X0009049Y0010736D01*
X0009039Y0010824D01*
X0009033Y0010912D01*
X0009031Y0011000D01*
X0045000Y0033500D02*
X0045002Y0033618D01*
X0045008Y0033736D01*
X0045018Y0033854D01*
X0045032Y0033971D01*
X0045050Y0034088D01*
X0045072Y0034205D01*
X0045097Y0034320D01*
X0045127Y0034434D01*
X0045161Y0034548D01*
X0045198Y0034660D01*
X0045239Y0034771D01*
X0045284Y0034880D01*
X0045332Y0034988D01*
X0045384Y0035094D01*
X0045440Y0035199D01*
X0045499Y0035301D01*
X0045561Y0035401D01*
X0045627Y0035499D01*
X0045696Y0035595D01*
X0045769Y0035689D01*
X0045844Y0035780D01*
X0045923Y0035868D01*
X0046004Y0035954D01*
X0046089Y0036037D01*
X0046176Y0036117D01*
X0046265Y0036194D01*
X0046358Y0036268D01*
X0046452Y0036338D01*
X0046549Y0036406D01*
X0046649Y0036470D01*
X0046750Y0036531D01*
X0046853Y0036588D01*
X0046959Y0036642D01*
X0047066Y0036693D01*
X0047174Y0036739D01*
X0047284Y0036782D01*
X0047396Y0036821D01*
X0047509Y0036857D01*
X0047623Y0036888D01*
X0047738Y0036916D01*
X0047853Y0036940D01*
X0047970Y0036960D01*
X0048087Y0036976D01*
X0048205Y0036988D01*
X0048323Y0036996D01*
X0048441Y0037000D01*
X0048559Y0037000D01*
X0048677Y0036996D01*
X0048795Y0036988D01*
X0048913Y0036976D01*
X0049030Y0036960D01*
X0049147Y0036940D01*
X0049262Y0036916D01*
X0049377Y0036888D01*
X0049491Y0036857D01*
X0049604Y0036821D01*
X0049716Y0036782D01*
X0049826Y0036739D01*
X0049934Y0036693D01*
X0050041Y0036642D01*
X0050147Y0036588D01*
X0050250Y0036531D01*
X0050351Y0036470D01*
X0050451Y0036406D01*
X0050548Y0036338D01*
X0050642Y0036268D01*
X0050735Y0036194D01*
X0050824Y0036117D01*
X0050911Y0036037D01*
X0050996Y0035954D01*
X0051077Y0035868D01*
X0051156Y0035780D01*
X0051231Y0035689D01*
X0051304Y0035595D01*
X0051373Y0035499D01*
X0051439Y0035401D01*
X0051501Y0035301D01*
X0051560Y0035199D01*
X0051616Y0035094D01*
X0051668Y0034988D01*
X0051716Y0034880D01*
X0051761Y0034771D01*
X0051802Y0034660D01*
X0051839Y0034548D01*
X0051873Y0034434D01*
X0051903Y0034320D01*
X0051928Y0034205D01*
X0051950Y0034088D01*
X0051968Y0033971D01*
X0051982Y0033854D01*
X0051992Y0033736D01*
X0051998Y0033618D01*
X0052000Y0033500D01*
X0051998Y0033382D01*
X0051992Y0033264D01*
X0051982Y0033146D01*
X0051968Y0033029D01*
X0051950Y0032912D01*
X0051928Y0032795D01*
X0051903Y0032680D01*
X0051873Y0032566D01*
X0051839Y0032452D01*
X0051802Y0032340D01*
X0051761Y0032229D01*
X0051716Y0032120D01*
X0051668Y0032012D01*
X0051616Y0031906D01*
X0051560Y0031801D01*
X0051501Y0031699D01*
X0051439Y0031599D01*
X0051373Y0031501D01*
X0051304Y0031405D01*
X0051231Y0031311D01*
X0051156Y0031220D01*
X0051077Y0031132D01*
X0050996Y0031046D01*
X0050911Y0030963D01*
X0050824Y0030883D01*
X0050735Y0030806D01*
X0050642Y0030732D01*
X0050548Y0030662D01*
X0050451Y0030594D01*
X0050351Y0030530D01*
X0050250Y0030469D01*
X0050147Y0030412D01*
X0050041Y0030358D01*
X0049934Y0030307D01*
X0049826Y0030261D01*
X0049716Y0030218D01*
X0049604Y0030179D01*
X0049491Y0030143D01*
X0049377Y0030112D01*
X0049262Y0030084D01*
X0049147Y0030060D01*
X0049030Y0030040D01*
X0048913Y0030024D01*
X0048795Y0030012D01*
X0048677Y0030004D01*
X0048559Y0030000D01*
X0048441Y0030000D01*
X0048323Y0030004D01*
X0048205Y0030012D01*
X0048087Y0030024D01*
X0047970Y0030040D01*
X0047853Y0030060D01*
X0047738Y0030084D01*
X0047623Y0030112D01*
X0047509Y0030143D01*
X0047396Y0030179D01*
X0047284Y0030218D01*
X0047174Y0030261D01*
X0047066Y0030307D01*
X0046959Y0030358D01*
X0046853Y0030412D01*
X0046750Y0030469D01*
X0046649Y0030530D01*
X0046549Y0030594D01*
X0046452Y0030662D01*
X0046358Y0030732D01*
X0046265Y0030806D01*
X0046176Y0030883D01*
X0046089Y0030963D01*
X0046004Y0031046D01*
X0045923Y0031132D01*
X0045844Y0031220D01*
X0045769Y0031311D01*
X0045696Y0031405D01*
X0045627Y0031501D01*
X0045561Y0031599D01*
X0045499Y0031699D01*
X0045440Y0031801D01*
X0045384Y0031906D01*
X0045332Y0032012D01*
X0045284Y0032120D01*
X0045239Y0032229D01*
X0045198Y0032340D01*
X0045161Y0032452D01*
X0045127Y0032566D01*
X0045097Y0032680D01*
X0045072Y0032795D01*
X0045050Y0032912D01*
X0045032Y0033029D01*
X0045018Y0033146D01*
X0045008Y0033264D01*
X0045002Y0033382D01*
X0045000Y0033500D01*
X0045000Y0093500D02*
X0045002Y0093618D01*
X0045008Y0093736D01*
X0045018Y0093854D01*
X0045032Y0093971D01*
X0045050Y0094088D01*
X0045072Y0094205D01*
X0045097Y0094320D01*
X0045127Y0094434D01*
X0045161Y0094548D01*
X0045198Y0094660D01*
X0045239Y0094771D01*
X0045284Y0094880D01*
X0045332Y0094988D01*
X0045384Y0095094D01*
X0045440Y0095199D01*
X0045499Y0095301D01*
X0045561Y0095401D01*
X0045627Y0095499D01*
X0045696Y0095595D01*
X0045769Y0095689D01*
X0045844Y0095780D01*
X0045923Y0095868D01*
X0046004Y0095954D01*
X0046089Y0096037D01*
X0046176Y0096117D01*
X0046265Y0096194D01*
X0046358Y0096268D01*
X0046452Y0096338D01*
X0046549Y0096406D01*
X0046649Y0096470D01*
X0046750Y0096531D01*
X0046853Y0096588D01*
X0046959Y0096642D01*
X0047066Y0096693D01*
X0047174Y0096739D01*
X0047284Y0096782D01*
X0047396Y0096821D01*
X0047509Y0096857D01*
X0047623Y0096888D01*
X0047738Y0096916D01*
X0047853Y0096940D01*
X0047970Y0096960D01*
X0048087Y0096976D01*
X0048205Y0096988D01*
X0048323Y0096996D01*
X0048441Y0097000D01*
X0048559Y0097000D01*
X0048677Y0096996D01*
X0048795Y0096988D01*
X0048913Y0096976D01*
X0049030Y0096960D01*
X0049147Y0096940D01*
X0049262Y0096916D01*
X0049377Y0096888D01*
X0049491Y0096857D01*
X0049604Y0096821D01*
X0049716Y0096782D01*
X0049826Y0096739D01*
X0049934Y0096693D01*
X0050041Y0096642D01*
X0050147Y0096588D01*
X0050250Y0096531D01*
X0050351Y0096470D01*
X0050451Y0096406D01*
X0050548Y0096338D01*
X0050642Y0096268D01*
X0050735Y0096194D01*
X0050824Y0096117D01*
X0050911Y0096037D01*
X0050996Y0095954D01*
X0051077Y0095868D01*
X0051156Y0095780D01*
X0051231Y0095689D01*
X0051304Y0095595D01*
X0051373Y0095499D01*
X0051439Y0095401D01*
X0051501Y0095301D01*
X0051560Y0095199D01*
X0051616Y0095094D01*
X0051668Y0094988D01*
X0051716Y0094880D01*
X0051761Y0094771D01*
X0051802Y0094660D01*
X0051839Y0094548D01*
X0051873Y0094434D01*
X0051903Y0094320D01*
X0051928Y0094205D01*
X0051950Y0094088D01*
X0051968Y0093971D01*
X0051982Y0093854D01*
X0051992Y0093736D01*
X0051998Y0093618D01*
X0052000Y0093500D01*
X0051998Y0093382D01*
X0051992Y0093264D01*
X0051982Y0093146D01*
X0051968Y0093029D01*
X0051950Y0092912D01*
X0051928Y0092795D01*
X0051903Y0092680D01*
X0051873Y0092566D01*
X0051839Y0092452D01*
X0051802Y0092340D01*
X0051761Y0092229D01*
X0051716Y0092120D01*
X0051668Y0092012D01*
X0051616Y0091906D01*
X0051560Y0091801D01*
X0051501Y0091699D01*
X0051439Y0091599D01*
X0051373Y0091501D01*
X0051304Y0091405D01*
X0051231Y0091311D01*
X0051156Y0091220D01*
X0051077Y0091132D01*
X0050996Y0091046D01*
X0050911Y0090963D01*
X0050824Y0090883D01*
X0050735Y0090806D01*
X0050642Y0090732D01*
X0050548Y0090662D01*
X0050451Y0090594D01*
X0050351Y0090530D01*
X0050250Y0090469D01*
X0050147Y0090412D01*
X0050041Y0090358D01*
X0049934Y0090307D01*
X0049826Y0090261D01*
X0049716Y0090218D01*
X0049604Y0090179D01*
X0049491Y0090143D01*
X0049377Y0090112D01*
X0049262Y0090084D01*
X0049147Y0090060D01*
X0049030Y0090040D01*
X0048913Y0090024D01*
X0048795Y0090012D01*
X0048677Y0090004D01*
X0048559Y0090000D01*
X0048441Y0090000D01*
X0048323Y0090004D01*
X0048205Y0090012D01*
X0048087Y0090024D01*
X0047970Y0090040D01*
X0047853Y0090060D01*
X0047738Y0090084D01*
X0047623Y0090112D01*
X0047509Y0090143D01*
X0047396Y0090179D01*
X0047284Y0090218D01*
X0047174Y0090261D01*
X0047066Y0090307D01*
X0046959Y0090358D01*
X0046853Y0090412D01*
X0046750Y0090469D01*
X0046649Y0090530D01*
X0046549Y0090594D01*
X0046452Y0090662D01*
X0046358Y0090732D01*
X0046265Y0090806D01*
X0046176Y0090883D01*
X0046089Y0090963D01*
X0046004Y0091046D01*
X0045923Y0091132D01*
X0045844Y0091220D01*
X0045769Y0091311D01*
X0045696Y0091405D01*
X0045627Y0091501D01*
X0045561Y0091599D01*
X0045499Y0091699D01*
X0045440Y0091801D01*
X0045384Y0091906D01*
X0045332Y0092012D01*
X0045284Y0092120D01*
X0045239Y0092229D01*
X0045198Y0092340D01*
X0045161Y0092452D01*
X0045127Y0092566D01*
X0045097Y0092680D01*
X0045072Y0092795D01*
X0045050Y0092912D01*
X0045032Y0093029D01*
X0045018Y0093146D01*
X0045008Y0093264D01*
X0045002Y0093382D01*
X0045000Y0093500D01*
X0205000Y0093500D02*
X0205002Y0093618D01*
X0205008Y0093736D01*
X0205018Y0093854D01*
X0205032Y0093971D01*
X0205050Y0094088D01*
X0205072Y0094205D01*
X0205097Y0094320D01*
X0205127Y0094434D01*
X0205161Y0094548D01*
X0205198Y0094660D01*
X0205239Y0094771D01*
X0205284Y0094880D01*
X0205332Y0094988D01*
X0205384Y0095094D01*
X0205440Y0095199D01*
X0205499Y0095301D01*
X0205561Y0095401D01*
X0205627Y0095499D01*
X0205696Y0095595D01*
X0205769Y0095689D01*
X0205844Y0095780D01*
X0205923Y0095868D01*
X0206004Y0095954D01*
X0206089Y0096037D01*
X0206176Y0096117D01*
X0206265Y0096194D01*
X0206358Y0096268D01*
X0206452Y0096338D01*
X0206549Y0096406D01*
X0206649Y0096470D01*
X0206750Y0096531D01*
X0206853Y0096588D01*
X0206959Y0096642D01*
X0207066Y0096693D01*
X0207174Y0096739D01*
X0207284Y0096782D01*
X0207396Y0096821D01*
X0207509Y0096857D01*
X0207623Y0096888D01*
X0207738Y0096916D01*
X0207853Y0096940D01*
X0207970Y0096960D01*
X0208087Y0096976D01*
X0208205Y0096988D01*
X0208323Y0096996D01*
X0208441Y0097000D01*
X0208559Y0097000D01*
X0208677Y0096996D01*
X0208795Y0096988D01*
X0208913Y0096976D01*
X0209030Y0096960D01*
X0209147Y0096940D01*
X0209262Y0096916D01*
X0209377Y0096888D01*
X0209491Y0096857D01*
X0209604Y0096821D01*
X0209716Y0096782D01*
X0209826Y0096739D01*
X0209934Y0096693D01*
X0210041Y0096642D01*
X0210147Y0096588D01*
X0210250Y0096531D01*
X0210351Y0096470D01*
X0210451Y0096406D01*
X0210548Y0096338D01*
X0210642Y0096268D01*
X0210735Y0096194D01*
X0210824Y0096117D01*
X0210911Y0096037D01*
X0210996Y0095954D01*
X0211077Y0095868D01*
X0211156Y0095780D01*
X0211231Y0095689D01*
X0211304Y0095595D01*
X0211373Y0095499D01*
X0211439Y0095401D01*
X0211501Y0095301D01*
X0211560Y0095199D01*
X0211616Y0095094D01*
X0211668Y0094988D01*
X0211716Y0094880D01*
X0211761Y0094771D01*
X0211802Y0094660D01*
X0211839Y0094548D01*
X0211873Y0094434D01*
X0211903Y0094320D01*
X0211928Y0094205D01*
X0211950Y0094088D01*
X0211968Y0093971D01*
X0211982Y0093854D01*
X0211992Y0093736D01*
X0211998Y0093618D01*
X0212000Y0093500D01*
X0211998Y0093382D01*
X0211992Y0093264D01*
X0211982Y0093146D01*
X0211968Y0093029D01*
X0211950Y0092912D01*
X0211928Y0092795D01*
X0211903Y0092680D01*
X0211873Y0092566D01*
X0211839Y0092452D01*
X0211802Y0092340D01*
X0211761Y0092229D01*
X0211716Y0092120D01*
X0211668Y0092012D01*
X0211616Y0091906D01*
X0211560Y0091801D01*
X0211501Y0091699D01*
X0211439Y0091599D01*
X0211373Y0091501D01*
X0211304Y0091405D01*
X0211231Y0091311D01*
X0211156Y0091220D01*
X0211077Y0091132D01*
X0210996Y0091046D01*
X0210911Y0090963D01*
X0210824Y0090883D01*
X0210735Y0090806D01*
X0210642Y0090732D01*
X0210548Y0090662D01*
X0210451Y0090594D01*
X0210351Y0090530D01*
X0210250Y0090469D01*
X0210147Y0090412D01*
X0210041Y0090358D01*
X0209934Y0090307D01*
X0209826Y0090261D01*
X0209716Y0090218D01*
X0209604Y0090179D01*
X0209491Y0090143D01*
X0209377Y0090112D01*
X0209262Y0090084D01*
X0209147Y0090060D01*
X0209030Y0090040D01*
X0208913Y0090024D01*
X0208795Y0090012D01*
X0208677Y0090004D01*
X0208559Y0090000D01*
X0208441Y0090000D01*
X0208323Y0090004D01*
X0208205Y0090012D01*
X0208087Y0090024D01*
X0207970Y0090040D01*
X0207853Y0090060D01*
X0207738Y0090084D01*
X0207623Y0090112D01*
X0207509Y0090143D01*
X0207396Y0090179D01*
X0207284Y0090218D01*
X0207174Y0090261D01*
X0207066Y0090307D01*
X0206959Y0090358D01*
X0206853Y0090412D01*
X0206750Y0090469D01*
X0206649Y0090530D01*
X0206549Y0090594D01*
X0206452Y0090662D01*
X0206358Y0090732D01*
X0206265Y0090806D01*
X0206176Y0090883D01*
X0206089Y0090963D01*
X0206004Y0091046D01*
X0205923Y0091132D01*
X0205844Y0091220D01*
X0205769Y0091311D01*
X0205696Y0091405D01*
X0205627Y0091501D01*
X0205561Y0091599D01*
X0205499Y0091699D01*
X0205440Y0091801D01*
X0205384Y0091906D01*
X0205332Y0092012D01*
X0205284Y0092120D01*
X0205239Y0092229D01*
X0205198Y0092340D01*
X0205161Y0092452D01*
X0205127Y0092566D01*
X0205097Y0092680D01*
X0205072Y0092795D01*
X0205050Y0092912D01*
X0205032Y0093029D01*
X0205018Y0093146D01*
X0205008Y0093264D01*
X0205002Y0093382D01*
X0205000Y0093500D01*
X0205000Y0033500D02*
X0205002Y0033618D01*
X0205008Y0033736D01*
X0205018Y0033854D01*
X0205032Y0033971D01*
X0205050Y0034088D01*
X0205072Y0034205D01*
X0205097Y0034320D01*
X0205127Y0034434D01*
X0205161Y0034548D01*
X0205198Y0034660D01*
X0205239Y0034771D01*
X0205284Y0034880D01*
X0205332Y0034988D01*
X0205384Y0035094D01*
X0205440Y0035199D01*
X0205499Y0035301D01*
X0205561Y0035401D01*
X0205627Y0035499D01*
X0205696Y0035595D01*
X0205769Y0035689D01*
X0205844Y0035780D01*
X0205923Y0035868D01*
X0206004Y0035954D01*
X0206089Y0036037D01*
X0206176Y0036117D01*
X0206265Y0036194D01*
X0206358Y0036268D01*
X0206452Y0036338D01*
X0206549Y0036406D01*
X0206649Y0036470D01*
X0206750Y0036531D01*
X0206853Y0036588D01*
X0206959Y0036642D01*
X0207066Y0036693D01*
X0207174Y0036739D01*
X0207284Y0036782D01*
X0207396Y0036821D01*
X0207509Y0036857D01*
X0207623Y0036888D01*
X0207738Y0036916D01*
X0207853Y0036940D01*
X0207970Y0036960D01*
X0208087Y0036976D01*
X0208205Y0036988D01*
X0208323Y0036996D01*
X0208441Y0037000D01*
X0208559Y0037000D01*
X0208677Y0036996D01*
X0208795Y0036988D01*
X0208913Y0036976D01*
X0209030Y0036960D01*
X0209147Y0036940D01*
X0209262Y0036916D01*
X0209377Y0036888D01*
X0209491Y0036857D01*
X0209604Y0036821D01*
X0209716Y0036782D01*
X0209826Y0036739D01*
X0209934Y0036693D01*
X0210041Y0036642D01*
X0210147Y0036588D01*
X0210250Y0036531D01*
X0210351Y0036470D01*
X0210451Y0036406D01*
X0210548Y0036338D01*
X0210642Y0036268D01*
X0210735Y0036194D01*
X0210824Y0036117D01*
X0210911Y0036037D01*
X0210996Y0035954D01*
X0211077Y0035868D01*
X0211156Y0035780D01*
X0211231Y0035689D01*
X0211304Y0035595D01*
X0211373Y0035499D01*
X0211439Y0035401D01*
X0211501Y0035301D01*
X0211560Y0035199D01*
X0211616Y0035094D01*
X0211668Y0034988D01*
X0211716Y0034880D01*
X0211761Y0034771D01*
X0211802Y0034660D01*
X0211839Y0034548D01*
X0211873Y0034434D01*
X0211903Y0034320D01*
X0211928Y0034205D01*
X0211950Y0034088D01*
X0211968Y0033971D01*
X0211982Y0033854D01*
X0211992Y0033736D01*
X0211998Y0033618D01*
X0212000Y0033500D01*
X0211998Y0033382D01*
X0211992Y0033264D01*
X0211982Y0033146D01*
X0211968Y0033029D01*
X0211950Y0032912D01*
X0211928Y0032795D01*
X0211903Y0032680D01*
X0211873Y0032566D01*
X0211839Y0032452D01*
X0211802Y0032340D01*
X0211761Y0032229D01*
X0211716Y0032120D01*
X0211668Y0032012D01*
X0211616Y0031906D01*
X0211560Y0031801D01*
X0211501Y0031699D01*
X0211439Y0031599D01*
X0211373Y0031501D01*
X0211304Y0031405D01*
X0211231Y0031311D01*
X0211156Y0031220D01*
X0211077Y0031132D01*
X0210996Y0031046D01*
X0210911Y0030963D01*
X0210824Y0030883D01*
X0210735Y0030806D01*
X0210642Y0030732D01*
X0210548Y0030662D01*
X0210451Y0030594D01*
X0210351Y0030530D01*
X0210250Y0030469D01*
X0210147Y0030412D01*
X0210041Y0030358D01*
X0209934Y0030307D01*
X0209826Y0030261D01*
X0209716Y0030218D01*
X0209604Y0030179D01*
X0209491Y0030143D01*
X0209377Y0030112D01*
X0209262Y0030084D01*
X0209147Y0030060D01*
X0209030Y0030040D01*
X0208913Y0030024D01*
X0208795Y0030012D01*
X0208677Y0030004D01*
X0208559Y0030000D01*
X0208441Y0030000D01*
X0208323Y0030004D01*
X0208205Y0030012D01*
X0208087Y0030024D01*
X0207970Y0030040D01*
X0207853Y0030060D01*
X0207738Y0030084D01*
X0207623Y0030112D01*
X0207509Y0030143D01*
X0207396Y0030179D01*
X0207284Y0030218D01*
X0207174Y0030261D01*
X0207066Y0030307D01*
X0206959Y0030358D01*
X0206853Y0030412D01*
X0206750Y0030469D01*
X0206649Y0030530D01*
X0206549Y0030594D01*
X0206452Y0030662D01*
X0206358Y0030732D01*
X0206265Y0030806D01*
X0206176Y0030883D01*
X0206089Y0030963D01*
X0206004Y0031046D01*
X0205923Y0031132D01*
X0205844Y0031220D01*
X0205769Y0031311D01*
X0205696Y0031405D01*
X0205627Y0031501D01*
X0205561Y0031599D01*
X0205499Y0031699D01*
X0205440Y0031801D01*
X0205384Y0031906D01*
X0205332Y0032012D01*
X0205284Y0032120D01*
X0205239Y0032229D01*
X0205198Y0032340D01*
X0205161Y0032452D01*
X0205127Y0032566D01*
X0205097Y0032680D01*
X0205072Y0032795D01*
X0205050Y0032912D01*
X0205032Y0033029D01*
X0205018Y0033146D01*
X0205008Y0033264D01*
X0205002Y0033382D01*
X0205000Y0033500D01*
X0262450Y0033300D02*
X0262452Y0033419D01*
X0262458Y0033537D01*
X0262468Y0033655D01*
X0262482Y0033773D01*
X0262499Y0033890D01*
X0262521Y0034007D01*
X0262547Y0034123D01*
X0262576Y0034238D01*
X0262609Y0034352D01*
X0262646Y0034464D01*
X0262687Y0034576D01*
X0262732Y0034686D01*
X0262780Y0034794D01*
X0262832Y0034901D01*
X0262887Y0035006D01*
X0262946Y0035109D01*
X0263008Y0035210D01*
X0263073Y0035309D01*
X0263142Y0035406D01*
X0263214Y0035500D01*
X0263289Y0035592D01*
X0263367Y0035681D01*
X0263448Y0035768D01*
X0263532Y0035852D01*
X0263619Y0035933D01*
X0263708Y0036011D01*
X0263800Y0036086D01*
X0263894Y0036158D01*
X0263991Y0036227D01*
X0264090Y0036292D01*
X0264191Y0036354D01*
X0264294Y0036413D01*
X0264399Y0036468D01*
X0264506Y0036520D01*
X0264614Y0036568D01*
X0264724Y0036613D01*
X0264836Y0036654D01*
X0264948Y0036691D01*
X0265062Y0036724D01*
X0265177Y0036753D01*
X0265293Y0036779D01*
X0265410Y0036801D01*
X0265527Y0036818D01*
X0265645Y0036832D01*
X0265763Y0036842D01*
X0265881Y0036848D01*
X0266000Y0036850D01*
X0266119Y0036848D01*
X0266237Y0036842D01*
X0266355Y0036832D01*
X0266473Y0036818D01*
X0266590Y0036801D01*
X0266707Y0036779D01*
X0266823Y0036753D01*
X0266938Y0036724D01*
X0267052Y0036691D01*
X0267164Y0036654D01*
X0267276Y0036613D01*
X0267386Y0036568D01*
X0267494Y0036520D01*
X0267601Y0036468D01*
X0267706Y0036413D01*
X0267809Y0036354D01*
X0267910Y0036292D01*
X0268009Y0036227D01*
X0268106Y0036158D01*
X0268200Y0036086D01*
X0268292Y0036011D01*
X0268381Y0035933D01*
X0268468Y0035852D01*
X0268552Y0035768D01*
X0268633Y0035681D01*
X0268711Y0035592D01*
X0268786Y0035500D01*
X0268858Y0035406D01*
X0268927Y0035309D01*
X0268992Y0035210D01*
X0269054Y0035109D01*
X0269113Y0035006D01*
X0269168Y0034901D01*
X0269220Y0034794D01*
X0269268Y0034686D01*
X0269313Y0034576D01*
X0269354Y0034464D01*
X0269391Y0034352D01*
X0269424Y0034238D01*
X0269453Y0034123D01*
X0269479Y0034007D01*
X0269501Y0033890D01*
X0269518Y0033773D01*
X0269532Y0033655D01*
X0269542Y0033537D01*
X0269548Y0033419D01*
X0269550Y0033300D01*
X0269548Y0033181D01*
X0269542Y0033063D01*
X0269532Y0032945D01*
X0269518Y0032827D01*
X0269501Y0032710D01*
X0269479Y0032593D01*
X0269453Y0032477D01*
X0269424Y0032362D01*
X0269391Y0032248D01*
X0269354Y0032136D01*
X0269313Y0032024D01*
X0269268Y0031914D01*
X0269220Y0031806D01*
X0269168Y0031699D01*
X0269113Y0031594D01*
X0269054Y0031491D01*
X0268992Y0031390D01*
X0268927Y0031291D01*
X0268858Y0031194D01*
X0268786Y0031100D01*
X0268711Y0031008D01*
X0268633Y0030919D01*
X0268552Y0030832D01*
X0268468Y0030748D01*
X0268381Y0030667D01*
X0268292Y0030589D01*
X0268200Y0030514D01*
X0268106Y0030442D01*
X0268009Y0030373D01*
X0267910Y0030308D01*
X0267809Y0030246D01*
X0267706Y0030187D01*
X0267601Y0030132D01*
X0267494Y0030080D01*
X0267386Y0030032D01*
X0267276Y0029987D01*
X0267164Y0029946D01*
X0267052Y0029909D01*
X0266938Y0029876D01*
X0266823Y0029847D01*
X0266707Y0029821D01*
X0266590Y0029799D01*
X0266473Y0029782D01*
X0266355Y0029768D01*
X0266237Y0029758D01*
X0266119Y0029752D01*
X0266000Y0029750D01*
X0265881Y0029752D01*
X0265763Y0029758D01*
X0265645Y0029768D01*
X0265527Y0029782D01*
X0265410Y0029799D01*
X0265293Y0029821D01*
X0265177Y0029847D01*
X0265062Y0029876D01*
X0264948Y0029909D01*
X0264836Y0029946D01*
X0264724Y0029987D01*
X0264614Y0030032D01*
X0264506Y0030080D01*
X0264399Y0030132D01*
X0264294Y0030187D01*
X0264191Y0030246D01*
X0264090Y0030308D01*
X0263991Y0030373D01*
X0263894Y0030442D01*
X0263800Y0030514D01*
X0263708Y0030589D01*
X0263619Y0030667D01*
X0263532Y0030748D01*
X0263448Y0030832D01*
X0263367Y0030919D01*
X0263289Y0031008D01*
X0263214Y0031100D01*
X0263142Y0031194D01*
X0263073Y0031291D01*
X0263008Y0031390D01*
X0262946Y0031491D01*
X0262887Y0031594D01*
X0262832Y0031699D01*
X0262780Y0031806D01*
X0262732Y0031914D01*
X0262687Y0032024D01*
X0262646Y0032136D01*
X0262609Y0032248D01*
X0262576Y0032362D01*
X0262547Y0032477D01*
X0262521Y0032593D01*
X0262499Y0032710D01*
X0262482Y0032827D01*
X0262468Y0032945D01*
X0262458Y0033063D01*
X0262452Y0033181D01*
X0262450Y0033300D01*
X0262450Y0068700D02*
X0262452Y0068819D01*
X0262458Y0068937D01*
X0262468Y0069055D01*
X0262482Y0069173D01*
X0262499Y0069290D01*
X0262521Y0069407D01*
X0262547Y0069523D01*
X0262576Y0069638D01*
X0262609Y0069752D01*
X0262646Y0069864D01*
X0262687Y0069976D01*
X0262732Y0070086D01*
X0262780Y0070194D01*
X0262832Y0070301D01*
X0262887Y0070406D01*
X0262946Y0070509D01*
X0263008Y0070610D01*
X0263073Y0070709D01*
X0263142Y0070806D01*
X0263214Y0070900D01*
X0263289Y0070992D01*
X0263367Y0071081D01*
X0263448Y0071168D01*
X0263532Y0071252D01*
X0263619Y0071333D01*
X0263708Y0071411D01*
X0263800Y0071486D01*
X0263894Y0071558D01*
X0263991Y0071627D01*
X0264090Y0071692D01*
X0264191Y0071754D01*
X0264294Y0071813D01*
X0264399Y0071868D01*
X0264506Y0071920D01*
X0264614Y0071968D01*
X0264724Y0072013D01*
X0264836Y0072054D01*
X0264948Y0072091D01*
X0265062Y0072124D01*
X0265177Y0072153D01*
X0265293Y0072179D01*
X0265410Y0072201D01*
X0265527Y0072218D01*
X0265645Y0072232D01*
X0265763Y0072242D01*
X0265881Y0072248D01*
X0266000Y0072250D01*
X0266119Y0072248D01*
X0266237Y0072242D01*
X0266355Y0072232D01*
X0266473Y0072218D01*
X0266590Y0072201D01*
X0266707Y0072179D01*
X0266823Y0072153D01*
X0266938Y0072124D01*
X0267052Y0072091D01*
X0267164Y0072054D01*
X0267276Y0072013D01*
X0267386Y0071968D01*
X0267494Y0071920D01*
X0267601Y0071868D01*
X0267706Y0071813D01*
X0267809Y0071754D01*
X0267910Y0071692D01*
X0268009Y0071627D01*
X0268106Y0071558D01*
X0268200Y0071486D01*
X0268292Y0071411D01*
X0268381Y0071333D01*
X0268468Y0071252D01*
X0268552Y0071168D01*
X0268633Y0071081D01*
X0268711Y0070992D01*
X0268786Y0070900D01*
X0268858Y0070806D01*
X0268927Y0070709D01*
X0268992Y0070610D01*
X0269054Y0070509D01*
X0269113Y0070406D01*
X0269168Y0070301D01*
X0269220Y0070194D01*
X0269268Y0070086D01*
X0269313Y0069976D01*
X0269354Y0069864D01*
X0269391Y0069752D01*
X0269424Y0069638D01*
X0269453Y0069523D01*
X0269479Y0069407D01*
X0269501Y0069290D01*
X0269518Y0069173D01*
X0269532Y0069055D01*
X0269542Y0068937D01*
X0269548Y0068819D01*
X0269550Y0068700D01*
X0269548Y0068581D01*
X0269542Y0068463D01*
X0269532Y0068345D01*
X0269518Y0068227D01*
X0269501Y0068110D01*
X0269479Y0067993D01*
X0269453Y0067877D01*
X0269424Y0067762D01*
X0269391Y0067648D01*
X0269354Y0067536D01*
X0269313Y0067424D01*
X0269268Y0067314D01*
X0269220Y0067206D01*
X0269168Y0067099D01*
X0269113Y0066994D01*
X0269054Y0066891D01*
X0268992Y0066790D01*
X0268927Y0066691D01*
X0268858Y0066594D01*
X0268786Y0066500D01*
X0268711Y0066408D01*
X0268633Y0066319D01*
X0268552Y0066232D01*
X0268468Y0066148D01*
X0268381Y0066067D01*
X0268292Y0065989D01*
X0268200Y0065914D01*
X0268106Y0065842D01*
X0268009Y0065773D01*
X0267910Y0065708D01*
X0267809Y0065646D01*
X0267706Y0065587D01*
X0267601Y0065532D01*
X0267494Y0065480D01*
X0267386Y0065432D01*
X0267276Y0065387D01*
X0267164Y0065346D01*
X0267052Y0065309D01*
X0266938Y0065276D01*
X0266823Y0065247D01*
X0266707Y0065221D01*
X0266590Y0065199D01*
X0266473Y0065182D01*
X0266355Y0065168D01*
X0266237Y0065158D01*
X0266119Y0065152D01*
X0266000Y0065150D01*
X0265881Y0065152D01*
X0265763Y0065158D01*
X0265645Y0065168D01*
X0265527Y0065182D01*
X0265410Y0065199D01*
X0265293Y0065221D01*
X0265177Y0065247D01*
X0265062Y0065276D01*
X0264948Y0065309D01*
X0264836Y0065346D01*
X0264724Y0065387D01*
X0264614Y0065432D01*
X0264506Y0065480D01*
X0264399Y0065532D01*
X0264294Y0065587D01*
X0264191Y0065646D01*
X0264090Y0065708D01*
X0263991Y0065773D01*
X0263894Y0065842D01*
X0263800Y0065914D01*
X0263708Y0065989D01*
X0263619Y0066067D01*
X0263532Y0066148D01*
X0263448Y0066232D01*
X0263367Y0066319D01*
X0263289Y0066408D01*
X0263214Y0066500D01*
X0263142Y0066594D01*
X0263073Y0066691D01*
X0263008Y0066790D01*
X0262946Y0066891D01*
X0262887Y0066994D01*
X0262832Y0067099D01*
X0262780Y0067206D01*
X0262732Y0067314D01*
X0262687Y0067424D01*
X0262646Y0067536D01*
X0262609Y0067648D01*
X0262576Y0067762D01*
X0262547Y0067877D01*
X0262521Y0067993D01*
X0262499Y0068110D01*
X0262482Y0068227D01*
X0262468Y0068345D01*
X0262458Y0068463D01*
X0262452Y0068581D01*
X0262450Y0068700D01*
X0337450Y0068700D02*
X0337452Y0068819D01*
X0337458Y0068937D01*
X0337468Y0069055D01*
X0337482Y0069173D01*
X0337499Y0069290D01*
X0337521Y0069407D01*
X0337547Y0069523D01*
X0337576Y0069638D01*
X0337609Y0069752D01*
X0337646Y0069864D01*
X0337687Y0069976D01*
X0337732Y0070086D01*
X0337780Y0070194D01*
X0337832Y0070301D01*
X0337887Y0070406D01*
X0337946Y0070509D01*
X0338008Y0070610D01*
X0338073Y0070709D01*
X0338142Y0070806D01*
X0338214Y0070900D01*
X0338289Y0070992D01*
X0338367Y0071081D01*
X0338448Y0071168D01*
X0338532Y0071252D01*
X0338619Y0071333D01*
X0338708Y0071411D01*
X0338800Y0071486D01*
X0338894Y0071558D01*
X0338991Y0071627D01*
X0339090Y0071692D01*
X0339191Y0071754D01*
X0339294Y0071813D01*
X0339399Y0071868D01*
X0339506Y0071920D01*
X0339614Y0071968D01*
X0339724Y0072013D01*
X0339836Y0072054D01*
X0339948Y0072091D01*
X0340062Y0072124D01*
X0340177Y0072153D01*
X0340293Y0072179D01*
X0340410Y0072201D01*
X0340527Y0072218D01*
X0340645Y0072232D01*
X0340763Y0072242D01*
X0340881Y0072248D01*
X0341000Y0072250D01*
X0341119Y0072248D01*
X0341237Y0072242D01*
X0341355Y0072232D01*
X0341473Y0072218D01*
X0341590Y0072201D01*
X0341707Y0072179D01*
X0341823Y0072153D01*
X0341938Y0072124D01*
X0342052Y0072091D01*
X0342164Y0072054D01*
X0342276Y0072013D01*
X0342386Y0071968D01*
X0342494Y0071920D01*
X0342601Y0071868D01*
X0342706Y0071813D01*
X0342809Y0071754D01*
X0342910Y0071692D01*
X0343009Y0071627D01*
X0343106Y0071558D01*
X0343200Y0071486D01*
X0343292Y0071411D01*
X0343381Y0071333D01*
X0343468Y0071252D01*
X0343552Y0071168D01*
X0343633Y0071081D01*
X0343711Y0070992D01*
X0343786Y0070900D01*
X0343858Y0070806D01*
X0343927Y0070709D01*
X0343992Y0070610D01*
X0344054Y0070509D01*
X0344113Y0070406D01*
X0344168Y0070301D01*
X0344220Y0070194D01*
X0344268Y0070086D01*
X0344313Y0069976D01*
X0344354Y0069864D01*
X0344391Y0069752D01*
X0344424Y0069638D01*
X0344453Y0069523D01*
X0344479Y0069407D01*
X0344501Y0069290D01*
X0344518Y0069173D01*
X0344532Y0069055D01*
X0344542Y0068937D01*
X0344548Y0068819D01*
X0344550Y0068700D01*
X0344548Y0068581D01*
X0344542Y0068463D01*
X0344532Y0068345D01*
X0344518Y0068227D01*
X0344501Y0068110D01*
X0344479Y0067993D01*
X0344453Y0067877D01*
X0344424Y0067762D01*
X0344391Y0067648D01*
X0344354Y0067536D01*
X0344313Y0067424D01*
X0344268Y0067314D01*
X0344220Y0067206D01*
X0344168Y0067099D01*
X0344113Y0066994D01*
X0344054Y0066891D01*
X0343992Y0066790D01*
X0343927Y0066691D01*
X0343858Y0066594D01*
X0343786Y0066500D01*
X0343711Y0066408D01*
X0343633Y0066319D01*
X0343552Y0066232D01*
X0343468Y0066148D01*
X0343381Y0066067D01*
X0343292Y0065989D01*
X0343200Y0065914D01*
X0343106Y0065842D01*
X0343009Y0065773D01*
X0342910Y0065708D01*
X0342809Y0065646D01*
X0342706Y0065587D01*
X0342601Y0065532D01*
X0342494Y0065480D01*
X0342386Y0065432D01*
X0342276Y0065387D01*
X0342164Y0065346D01*
X0342052Y0065309D01*
X0341938Y0065276D01*
X0341823Y0065247D01*
X0341707Y0065221D01*
X0341590Y0065199D01*
X0341473Y0065182D01*
X0341355Y0065168D01*
X0341237Y0065158D01*
X0341119Y0065152D01*
X0341000Y0065150D01*
X0340881Y0065152D01*
X0340763Y0065158D01*
X0340645Y0065168D01*
X0340527Y0065182D01*
X0340410Y0065199D01*
X0340293Y0065221D01*
X0340177Y0065247D01*
X0340062Y0065276D01*
X0339948Y0065309D01*
X0339836Y0065346D01*
X0339724Y0065387D01*
X0339614Y0065432D01*
X0339506Y0065480D01*
X0339399Y0065532D01*
X0339294Y0065587D01*
X0339191Y0065646D01*
X0339090Y0065708D01*
X0338991Y0065773D01*
X0338894Y0065842D01*
X0338800Y0065914D01*
X0338708Y0065989D01*
X0338619Y0066067D01*
X0338532Y0066148D01*
X0338448Y0066232D01*
X0338367Y0066319D01*
X0338289Y0066408D01*
X0338214Y0066500D01*
X0338142Y0066594D01*
X0338073Y0066691D01*
X0338008Y0066790D01*
X0337946Y0066891D01*
X0337887Y0066994D01*
X0337832Y0067099D01*
X0337780Y0067206D01*
X0337732Y0067314D01*
X0337687Y0067424D01*
X0337646Y0067536D01*
X0337609Y0067648D01*
X0337576Y0067762D01*
X0337547Y0067877D01*
X0337521Y0067993D01*
X0337499Y0068110D01*
X0337482Y0068227D01*
X0337468Y0068345D01*
X0337458Y0068463D01*
X0337452Y0068581D01*
X0337450Y0068700D01*
X0337450Y0033300D02*
X0337452Y0033419D01*
X0337458Y0033537D01*
X0337468Y0033655D01*
X0337482Y0033773D01*
X0337499Y0033890D01*
X0337521Y0034007D01*
X0337547Y0034123D01*
X0337576Y0034238D01*
X0337609Y0034352D01*
X0337646Y0034464D01*
X0337687Y0034576D01*
X0337732Y0034686D01*
X0337780Y0034794D01*
X0337832Y0034901D01*
X0337887Y0035006D01*
X0337946Y0035109D01*
X0338008Y0035210D01*
X0338073Y0035309D01*
X0338142Y0035406D01*
X0338214Y0035500D01*
X0338289Y0035592D01*
X0338367Y0035681D01*
X0338448Y0035768D01*
X0338532Y0035852D01*
X0338619Y0035933D01*
X0338708Y0036011D01*
X0338800Y0036086D01*
X0338894Y0036158D01*
X0338991Y0036227D01*
X0339090Y0036292D01*
X0339191Y0036354D01*
X0339294Y0036413D01*
X0339399Y0036468D01*
X0339506Y0036520D01*
X0339614Y0036568D01*
X0339724Y0036613D01*
X0339836Y0036654D01*
X0339948Y0036691D01*
X0340062Y0036724D01*
X0340177Y0036753D01*
X0340293Y0036779D01*
X0340410Y0036801D01*
X0340527Y0036818D01*
X0340645Y0036832D01*
X0340763Y0036842D01*
X0340881Y0036848D01*
X0341000Y0036850D01*
X0341119Y0036848D01*
X0341237Y0036842D01*
X0341355Y0036832D01*
X0341473Y0036818D01*
X0341590Y0036801D01*
X0341707Y0036779D01*
X0341823Y0036753D01*
X0341938Y0036724D01*
X0342052Y0036691D01*
X0342164Y0036654D01*
X0342276Y0036613D01*
X0342386Y0036568D01*
X0342494Y0036520D01*
X0342601Y0036468D01*
X0342706Y0036413D01*
X0342809Y0036354D01*
X0342910Y0036292D01*
X0343009Y0036227D01*
X0343106Y0036158D01*
X0343200Y0036086D01*
X0343292Y0036011D01*
X0343381Y0035933D01*
X0343468Y0035852D01*
X0343552Y0035768D01*
X0343633Y0035681D01*
X0343711Y0035592D01*
X0343786Y0035500D01*
X0343858Y0035406D01*
X0343927Y0035309D01*
X0343992Y0035210D01*
X0344054Y0035109D01*
X0344113Y0035006D01*
X0344168Y0034901D01*
X0344220Y0034794D01*
X0344268Y0034686D01*
X0344313Y0034576D01*
X0344354Y0034464D01*
X0344391Y0034352D01*
X0344424Y0034238D01*
X0344453Y0034123D01*
X0344479Y0034007D01*
X0344501Y0033890D01*
X0344518Y0033773D01*
X0344532Y0033655D01*
X0344542Y0033537D01*
X0344548Y0033419D01*
X0344550Y0033300D01*
X0344548Y0033181D01*
X0344542Y0033063D01*
X0344532Y0032945D01*
X0344518Y0032827D01*
X0344501Y0032710D01*
X0344479Y0032593D01*
X0344453Y0032477D01*
X0344424Y0032362D01*
X0344391Y0032248D01*
X0344354Y0032136D01*
X0344313Y0032024D01*
X0344268Y0031914D01*
X0344220Y0031806D01*
X0344168Y0031699D01*
X0344113Y0031594D01*
X0344054Y0031491D01*
X0343992Y0031390D01*
X0343927Y0031291D01*
X0343858Y0031194D01*
X0343786Y0031100D01*
X0343711Y0031008D01*
X0343633Y0030919D01*
X0343552Y0030832D01*
X0343468Y0030748D01*
X0343381Y0030667D01*
X0343292Y0030589D01*
X0343200Y0030514D01*
X0343106Y0030442D01*
X0343009Y0030373D01*
X0342910Y0030308D01*
X0342809Y0030246D01*
X0342706Y0030187D01*
X0342601Y0030132D01*
X0342494Y0030080D01*
X0342386Y0030032D01*
X0342276Y0029987D01*
X0342164Y0029946D01*
X0342052Y0029909D01*
X0341938Y0029876D01*
X0341823Y0029847D01*
X0341707Y0029821D01*
X0341590Y0029799D01*
X0341473Y0029782D01*
X0341355Y0029768D01*
X0341237Y0029758D01*
X0341119Y0029752D01*
X0341000Y0029750D01*
X0340881Y0029752D01*
X0340763Y0029758D01*
X0340645Y0029768D01*
X0340527Y0029782D01*
X0340410Y0029799D01*
X0340293Y0029821D01*
X0340177Y0029847D01*
X0340062Y0029876D01*
X0339948Y0029909D01*
X0339836Y0029946D01*
X0339724Y0029987D01*
X0339614Y0030032D01*
X0339506Y0030080D01*
X0339399Y0030132D01*
X0339294Y0030187D01*
X0339191Y0030246D01*
X0339090Y0030308D01*
X0338991Y0030373D01*
X0338894Y0030442D01*
X0338800Y0030514D01*
X0338708Y0030589D01*
X0338619Y0030667D01*
X0338532Y0030748D01*
X0338448Y0030832D01*
X0338367Y0030919D01*
X0338289Y0031008D01*
X0338214Y0031100D01*
X0338142Y0031194D01*
X0338073Y0031291D01*
X0338008Y0031390D01*
X0337946Y0031491D01*
X0337887Y0031594D01*
X0337832Y0031699D01*
X0337780Y0031806D01*
X0337732Y0031914D01*
X0337687Y0032024D01*
X0337646Y0032136D01*
X0337609Y0032248D01*
X0337576Y0032362D01*
X0337547Y0032477D01*
X0337521Y0032593D01*
X0337499Y0032710D01*
X0337482Y0032827D01*
X0337468Y0032945D01*
X0337458Y0033063D01*
X0337452Y0033181D01*
X0337450Y0033300D01*
X0381531Y0621000D02*
X0381533Y0621088D01*
X0381539Y0621176D01*
X0381549Y0621264D01*
X0381563Y0621352D01*
X0381580Y0621438D01*
X0381602Y0621524D01*
X0381627Y0621608D01*
X0381657Y0621692D01*
X0381689Y0621774D01*
X0381726Y0621854D01*
X0381766Y0621933D01*
X0381810Y0622010D01*
X0381857Y0622085D01*
X0381907Y0622157D01*
X0381961Y0622228D01*
X0382017Y0622295D01*
X0382077Y0622361D01*
X0382139Y0622423D01*
X0382205Y0622483D01*
X0382272Y0622539D01*
X0382343Y0622593D01*
X0382415Y0622643D01*
X0382490Y0622690D01*
X0382567Y0622734D01*
X0382646Y0622774D01*
X0382726Y0622811D01*
X0382808Y0622843D01*
X0382892Y0622873D01*
X0382976Y0622898D01*
X0383062Y0622920D01*
X0383148Y0622937D01*
X0383236Y0622951D01*
X0383324Y0622961D01*
X0383412Y0622967D01*
X0383500Y0622969D01*
X0383588Y0622967D01*
X0383676Y0622961D01*
X0383764Y0622951D01*
X0383852Y0622937D01*
X0383938Y0622920D01*
X0384024Y0622898D01*
X0384108Y0622873D01*
X0384192Y0622843D01*
X0384274Y0622811D01*
X0384354Y0622774D01*
X0384433Y0622734D01*
X0384510Y0622690D01*
X0384585Y0622643D01*
X0384657Y0622593D01*
X0384728Y0622539D01*
X0384795Y0622483D01*
X0384861Y0622423D01*
X0384923Y0622361D01*
X0384983Y0622295D01*
X0385039Y0622228D01*
X0385093Y0622157D01*
X0385143Y0622085D01*
X0385190Y0622010D01*
X0385234Y0621933D01*
X0385274Y0621854D01*
X0385311Y0621774D01*
X0385343Y0621692D01*
X0385373Y0621608D01*
X0385398Y0621524D01*
X0385420Y0621438D01*
X0385437Y0621352D01*
X0385451Y0621264D01*
X0385461Y0621176D01*
X0385467Y0621088D01*
X0385469Y0621000D01*
X0385467Y0620912D01*
X0385461Y0620824D01*
X0385451Y0620736D01*
X0385437Y0620648D01*
X0385420Y0620562D01*
X0385398Y0620476D01*
X0385373Y0620392D01*
X0385343Y0620308D01*
X0385311Y0620226D01*
X0385274Y0620146D01*
X0385234Y0620067D01*
X0385190Y0619990D01*
X0385143Y0619915D01*
X0385093Y0619843D01*
X0385039Y0619772D01*
X0384983Y0619705D01*
X0384923Y0619639D01*
X0384861Y0619577D01*
X0384795Y0619517D01*
X0384728Y0619461D01*
X0384657Y0619407D01*
X0384585Y0619357D01*
X0384510Y0619310D01*
X0384433Y0619266D01*
X0384354Y0619226D01*
X0384274Y0619189D01*
X0384192Y0619157D01*
X0384108Y0619127D01*
X0384024Y0619102D01*
X0383938Y0619080D01*
X0383852Y0619063D01*
X0383764Y0619049D01*
X0383676Y0619039D01*
X0383588Y0619033D01*
X0383500Y0619031D01*
X0383412Y0619033D01*
X0383324Y0619039D01*
X0383236Y0619049D01*
X0383148Y0619063D01*
X0383062Y0619080D01*
X0382976Y0619102D01*
X0382892Y0619127D01*
X0382808Y0619157D01*
X0382726Y0619189D01*
X0382646Y0619226D01*
X0382567Y0619266D01*
X0382490Y0619310D01*
X0382415Y0619357D01*
X0382343Y0619407D01*
X0382272Y0619461D01*
X0382205Y0619517D01*
X0382139Y0619577D01*
X0382077Y0619639D01*
X0382017Y0619705D01*
X0381961Y0619772D01*
X0381907Y0619843D01*
X0381857Y0619915D01*
X0381810Y0619990D01*
X0381766Y0620067D01*
X0381726Y0620146D01*
X0381689Y0620226D01*
X0381657Y0620308D01*
X0381627Y0620392D01*
X0381602Y0620476D01*
X0381580Y0620562D01*
X0381563Y0620648D01*
X0381549Y0620736D01*
X0381539Y0620824D01*
X0381533Y0620912D01*
X0381531Y0621000D01*
X0009031Y0621000D02*
X0009033Y0621088D01*
X0009039Y0621176D01*
X0009049Y0621264D01*
X0009063Y0621352D01*
X0009080Y0621438D01*
X0009102Y0621524D01*
X0009127Y0621608D01*
X0009157Y0621692D01*
X0009189Y0621774D01*
X0009226Y0621854D01*
X0009266Y0621933D01*
X0009310Y0622010D01*
X0009357Y0622085D01*
X0009407Y0622157D01*
X0009461Y0622228D01*
X0009517Y0622295D01*
X0009577Y0622361D01*
X0009639Y0622423D01*
X0009705Y0622483D01*
X0009772Y0622539D01*
X0009843Y0622593D01*
X0009915Y0622643D01*
X0009990Y0622690D01*
X0010067Y0622734D01*
X0010146Y0622774D01*
X0010226Y0622811D01*
X0010308Y0622843D01*
X0010392Y0622873D01*
X0010476Y0622898D01*
X0010562Y0622920D01*
X0010648Y0622937D01*
X0010736Y0622951D01*
X0010824Y0622961D01*
X0010912Y0622967D01*
X0011000Y0622969D01*
X0011088Y0622967D01*
X0011176Y0622961D01*
X0011264Y0622951D01*
X0011352Y0622937D01*
X0011438Y0622920D01*
X0011524Y0622898D01*
X0011608Y0622873D01*
X0011692Y0622843D01*
X0011774Y0622811D01*
X0011854Y0622774D01*
X0011933Y0622734D01*
X0012010Y0622690D01*
X0012085Y0622643D01*
X0012157Y0622593D01*
X0012228Y0622539D01*
X0012295Y0622483D01*
X0012361Y0622423D01*
X0012423Y0622361D01*
X0012483Y0622295D01*
X0012539Y0622228D01*
X0012593Y0622157D01*
X0012643Y0622085D01*
X0012690Y0622010D01*
X0012734Y0621933D01*
X0012774Y0621854D01*
X0012811Y0621774D01*
X0012843Y0621692D01*
X0012873Y0621608D01*
X0012898Y0621524D01*
X0012920Y0621438D01*
X0012937Y0621352D01*
X0012951Y0621264D01*
X0012961Y0621176D01*
X0012967Y0621088D01*
X0012969Y0621000D01*
X0012967Y0620912D01*
X0012961Y0620824D01*
X0012951Y0620736D01*
X0012937Y0620648D01*
X0012920Y0620562D01*
X0012898Y0620476D01*
X0012873Y0620392D01*
X0012843Y0620308D01*
X0012811Y0620226D01*
X0012774Y0620146D01*
X0012734Y0620067D01*
X0012690Y0619990D01*
X0012643Y0619915D01*
X0012593Y0619843D01*
X0012539Y0619772D01*
X0012483Y0619705D01*
X0012423Y0619639D01*
X0012361Y0619577D01*
X0012295Y0619517D01*
X0012228Y0619461D01*
X0012157Y0619407D01*
X0012085Y0619357D01*
X0012010Y0619310D01*
X0011933Y0619266D01*
X0011854Y0619226D01*
X0011774Y0619189D01*
X0011692Y0619157D01*
X0011608Y0619127D01*
X0011524Y0619102D01*
X0011438Y0619080D01*
X0011352Y0619063D01*
X0011264Y0619049D01*
X0011176Y0619039D01*
X0011088Y0619033D01*
X0011000Y0619031D01*
X0010912Y0619033D01*
X0010824Y0619039D01*
X0010736Y0619049D01*
X0010648Y0619063D01*
X0010562Y0619080D01*
X0010476Y0619102D01*
X0010392Y0619127D01*
X0010308Y0619157D01*
X0010226Y0619189D01*
X0010146Y0619226D01*
X0010067Y0619266D01*
X0009990Y0619310D01*
X0009915Y0619357D01*
X0009843Y0619407D01*
X0009772Y0619461D01*
X0009705Y0619517D01*
X0009639Y0619577D01*
X0009577Y0619639D01*
X0009517Y0619705D01*
X0009461Y0619772D01*
X0009407Y0619843D01*
X0009357Y0619915D01*
X0009310Y0619990D01*
X0009266Y0620067D01*
X0009226Y0620146D01*
X0009189Y0620226D01*
X0009157Y0620308D01*
X0009127Y0620392D01*
X0009102Y0620476D01*
X0009080Y0620562D01*
X0009063Y0620648D01*
X0009049Y0620736D01*
X0009039Y0620824D01*
X0009033Y0620912D01*
X0009031Y0621000D01*
D11*
X0247000Y0076000D02*
X0259000Y0076000D01*
X0259000Y0075000D01*
X0262000Y0075000D01*
X0262000Y0076500D01*
X0270000Y0076500D01*
X0270000Y0075000D01*
X0273000Y0075000D01*
X0273000Y0076000D01*
X0285000Y0076000D01*
X0286000Y0075000D01*
X0290000Y0071000D01*
X0290000Y0066000D01*
X0286000Y0075000D02*
X0273000Y0075000D01*
X0270000Y0075000D02*
X0262000Y0075000D01*
X0259000Y0075000D02*
X0246000Y0075000D01*
X0247000Y0076000D01*
X0246000Y0075000D02*
X0242000Y0071000D01*
X0242000Y0066000D01*
X0242000Y0055500D02*
X0242000Y0046500D01*
X0242000Y0036000D02*
X0242000Y0031000D01*
X0246000Y0027000D01*
X0247000Y0026000D01*
X0259000Y0026000D01*
X0259000Y0027000D01*
X0246000Y0027000D01*
X0259000Y0027000D02*
X0262000Y0027000D01*
X0270000Y0027000D01*
X0273000Y0027000D01*
X0273000Y0026000D01*
X0285000Y0026000D01*
X0286000Y0027000D01*
X0273000Y0027000D01*
X0270000Y0027000D02*
X0270000Y0025500D01*
X0262000Y0025500D01*
X0262000Y0027000D01*
X0258500Y0043500D02*
X0273500Y0043500D01*
X0273500Y0058500D01*
X0258500Y0058500D01*
X0258500Y0043500D01*
X0252000Y0051000D02*
X0252004Y0051344D01*
X0252017Y0051687D01*
X0252038Y0052030D01*
X0252067Y0052372D01*
X0252105Y0052714D01*
X0252152Y0053054D01*
X0252206Y0053393D01*
X0252269Y0053731D01*
X0252340Y0054067D01*
X0252420Y0054402D01*
X0252507Y0054734D01*
X0252603Y0055064D01*
X0252707Y0055392D01*
X0252818Y0055716D01*
X0252938Y0056039D01*
X0253066Y0056358D01*
X0253201Y0056673D01*
X0253344Y0056986D01*
X0253495Y0057295D01*
X0253653Y0057600D01*
X0253819Y0057901D01*
X0253992Y0058197D01*
X0254172Y0058490D01*
X0254359Y0058778D01*
X0254554Y0059061D01*
X0254755Y0059340D01*
X0254963Y0059613D01*
X0255178Y0059882D01*
X0255399Y0060144D01*
X0255627Y0060402D01*
X0255861Y0060654D01*
X0256101Y0060899D01*
X0256346Y0061139D01*
X0256598Y0061373D01*
X0256856Y0061601D01*
X0257118Y0061822D01*
X0257387Y0062037D01*
X0257660Y0062245D01*
X0257939Y0062446D01*
X0258222Y0062641D01*
X0258510Y0062828D01*
X0258803Y0063008D01*
X0259099Y0063181D01*
X0259400Y0063347D01*
X0259705Y0063505D01*
X0260014Y0063656D01*
X0260327Y0063799D01*
X0260642Y0063934D01*
X0260961Y0064062D01*
X0261284Y0064182D01*
X0261608Y0064293D01*
X0261936Y0064397D01*
X0262266Y0064493D01*
X0262598Y0064580D01*
X0262933Y0064660D01*
X0263269Y0064731D01*
X0263607Y0064794D01*
X0263946Y0064848D01*
X0264286Y0064895D01*
X0264628Y0064933D01*
X0264970Y0064962D01*
X0265313Y0064983D01*
X0265656Y0064996D01*
X0266000Y0065000D01*
X0266344Y0064996D01*
X0266687Y0064983D01*
X0267030Y0064962D01*
X0267372Y0064933D01*
X0267714Y0064895D01*
X0268054Y0064848D01*
X0268393Y0064794D01*
X0268731Y0064731D01*
X0269067Y0064660D01*
X0269402Y0064580D01*
X0269734Y0064493D01*
X0270064Y0064397D01*
X0270392Y0064293D01*
X0270716Y0064182D01*
X0271039Y0064062D01*
X0271358Y0063934D01*
X0271673Y0063799D01*
X0271986Y0063656D01*
X0272295Y0063505D01*
X0272600Y0063347D01*
X0272901Y0063181D01*
X0273197Y0063008D01*
X0273490Y0062828D01*
X0273778Y0062641D01*
X0274061Y0062446D01*
X0274340Y0062245D01*
X0274613Y0062037D01*
X0274882Y0061822D01*
X0275144Y0061601D01*
X0275402Y0061373D01*
X0275654Y0061139D01*
X0275899Y0060899D01*
X0276139Y0060654D01*
X0276373Y0060402D01*
X0276601Y0060144D01*
X0276822Y0059882D01*
X0277037Y0059613D01*
X0277245Y0059340D01*
X0277446Y0059061D01*
X0277641Y0058778D01*
X0277828Y0058490D01*
X0278008Y0058197D01*
X0278181Y0057901D01*
X0278347Y0057600D01*
X0278505Y0057295D01*
X0278656Y0056986D01*
X0278799Y0056673D01*
X0278934Y0056358D01*
X0279062Y0056039D01*
X0279182Y0055716D01*
X0279293Y0055392D01*
X0279397Y0055064D01*
X0279493Y0054734D01*
X0279580Y0054402D01*
X0279660Y0054067D01*
X0279731Y0053731D01*
X0279794Y0053393D01*
X0279848Y0053054D01*
X0279895Y0052714D01*
X0279933Y0052372D01*
X0279962Y0052030D01*
X0279983Y0051687D01*
X0279996Y0051344D01*
X0280000Y0051000D01*
X0279996Y0050656D01*
X0279983Y0050313D01*
X0279962Y0049970D01*
X0279933Y0049628D01*
X0279895Y0049286D01*
X0279848Y0048946D01*
X0279794Y0048607D01*
X0279731Y0048269D01*
X0279660Y0047933D01*
X0279580Y0047598D01*
X0279493Y0047266D01*
X0279397Y0046936D01*
X0279293Y0046608D01*
X0279182Y0046284D01*
X0279062Y0045961D01*
X0278934Y0045642D01*
X0278799Y0045327D01*
X0278656Y0045014D01*
X0278505Y0044705D01*
X0278347Y0044400D01*
X0278181Y0044099D01*
X0278008Y0043803D01*
X0277828Y0043510D01*
X0277641Y0043222D01*
X0277446Y0042939D01*
X0277245Y0042660D01*
X0277037Y0042387D01*
X0276822Y0042118D01*
X0276601Y0041856D01*
X0276373Y0041598D01*
X0276139Y0041346D01*
X0275899Y0041101D01*
X0275654Y0040861D01*
X0275402Y0040627D01*
X0275144Y0040399D01*
X0274882Y0040178D01*
X0274613Y0039963D01*
X0274340Y0039755D01*
X0274061Y0039554D01*
X0273778Y0039359D01*
X0273490Y0039172D01*
X0273197Y0038992D01*
X0272901Y0038819D01*
X0272600Y0038653D01*
X0272295Y0038495D01*
X0271986Y0038344D01*
X0271673Y0038201D01*
X0271358Y0038066D01*
X0271039Y0037938D01*
X0270716Y0037818D01*
X0270392Y0037707D01*
X0270064Y0037603D01*
X0269734Y0037507D01*
X0269402Y0037420D01*
X0269067Y0037340D01*
X0268731Y0037269D01*
X0268393Y0037206D01*
X0268054Y0037152D01*
X0267714Y0037105D01*
X0267372Y0037067D01*
X0267030Y0037038D01*
X0266687Y0037017D01*
X0266344Y0037004D01*
X0266000Y0037000D01*
X0265656Y0037004D01*
X0265313Y0037017D01*
X0264970Y0037038D01*
X0264628Y0037067D01*
X0264286Y0037105D01*
X0263946Y0037152D01*
X0263607Y0037206D01*
X0263269Y0037269D01*
X0262933Y0037340D01*
X0262598Y0037420D01*
X0262266Y0037507D01*
X0261936Y0037603D01*
X0261608Y0037707D01*
X0261284Y0037818D01*
X0260961Y0037938D01*
X0260642Y0038066D01*
X0260327Y0038201D01*
X0260014Y0038344D01*
X0259705Y0038495D01*
X0259400Y0038653D01*
X0259099Y0038819D01*
X0258803Y0038992D01*
X0258510Y0039172D01*
X0258222Y0039359D01*
X0257939Y0039554D01*
X0257660Y0039755D01*
X0257387Y0039963D01*
X0257118Y0040178D01*
X0256856Y0040399D01*
X0256598Y0040627D01*
X0256346Y0040861D01*
X0256101Y0041101D01*
X0255861Y0041346D01*
X0255627Y0041598D01*
X0255399Y0041856D01*
X0255178Y0042118D01*
X0254963Y0042387D01*
X0254755Y0042660D01*
X0254554Y0042939D01*
X0254359Y0043222D01*
X0254172Y0043510D01*
X0253992Y0043803D01*
X0253819Y0044099D01*
X0253653Y0044400D01*
X0253495Y0044705D01*
X0253344Y0045014D01*
X0253201Y0045327D01*
X0253066Y0045642D01*
X0252938Y0045961D01*
X0252818Y0046284D01*
X0252707Y0046608D01*
X0252603Y0046936D01*
X0252507Y0047266D01*
X0252420Y0047598D01*
X0252340Y0047933D01*
X0252269Y0048269D01*
X0252206Y0048607D01*
X0252152Y0048946D01*
X0252105Y0049286D01*
X0252067Y0049628D01*
X0252038Y0049970D01*
X0252017Y0050313D01*
X0252004Y0050656D01*
X0252000Y0051000D01*
X0286000Y0027000D02*
X0290000Y0031000D01*
X0290000Y0036000D01*
X0290000Y0046500D02*
X0290000Y0055500D01*
X0317000Y0055500D02*
X0317000Y0046500D01*
X0317000Y0036000D02*
X0317000Y0031000D01*
X0321000Y0027000D01*
X0322000Y0026000D01*
X0334000Y0026000D01*
X0334000Y0027000D01*
X0321000Y0027000D01*
X0334000Y0027000D02*
X0337000Y0027000D01*
X0345000Y0027000D01*
X0348000Y0027000D01*
X0348000Y0026000D01*
X0360000Y0026000D01*
X0361000Y0027000D01*
X0348000Y0027000D01*
X0345000Y0027000D02*
X0345000Y0025500D01*
X0337000Y0025500D01*
X0337000Y0027000D01*
X0333500Y0043500D02*
X0348500Y0043500D01*
X0348500Y0058500D01*
X0333500Y0058500D01*
X0333500Y0043500D01*
X0327000Y0051000D02*
X0327004Y0051344D01*
X0327017Y0051687D01*
X0327038Y0052030D01*
X0327067Y0052372D01*
X0327105Y0052714D01*
X0327152Y0053054D01*
X0327206Y0053393D01*
X0327269Y0053731D01*
X0327340Y0054067D01*
X0327420Y0054402D01*
X0327507Y0054734D01*
X0327603Y0055064D01*
X0327707Y0055392D01*
X0327818Y0055716D01*
X0327938Y0056039D01*
X0328066Y0056358D01*
X0328201Y0056673D01*
X0328344Y0056986D01*
X0328495Y0057295D01*
X0328653Y0057600D01*
X0328819Y0057901D01*
X0328992Y0058197D01*
X0329172Y0058490D01*
X0329359Y0058778D01*
X0329554Y0059061D01*
X0329755Y0059340D01*
X0329963Y0059613D01*
X0330178Y0059882D01*
X0330399Y0060144D01*
X0330627Y0060402D01*
X0330861Y0060654D01*
X0331101Y0060899D01*
X0331346Y0061139D01*
X0331598Y0061373D01*
X0331856Y0061601D01*
X0332118Y0061822D01*
X0332387Y0062037D01*
X0332660Y0062245D01*
X0332939Y0062446D01*
X0333222Y0062641D01*
X0333510Y0062828D01*
X0333803Y0063008D01*
X0334099Y0063181D01*
X0334400Y0063347D01*
X0334705Y0063505D01*
X0335014Y0063656D01*
X0335327Y0063799D01*
X0335642Y0063934D01*
X0335961Y0064062D01*
X0336284Y0064182D01*
X0336608Y0064293D01*
X0336936Y0064397D01*
X0337266Y0064493D01*
X0337598Y0064580D01*
X0337933Y0064660D01*
X0338269Y0064731D01*
X0338607Y0064794D01*
X0338946Y0064848D01*
X0339286Y0064895D01*
X0339628Y0064933D01*
X0339970Y0064962D01*
X0340313Y0064983D01*
X0340656Y0064996D01*
X0341000Y0065000D01*
X0341344Y0064996D01*
X0341687Y0064983D01*
X0342030Y0064962D01*
X0342372Y0064933D01*
X0342714Y0064895D01*
X0343054Y0064848D01*
X0343393Y0064794D01*
X0343731Y0064731D01*
X0344067Y0064660D01*
X0344402Y0064580D01*
X0344734Y0064493D01*
X0345064Y0064397D01*
X0345392Y0064293D01*
X0345716Y0064182D01*
X0346039Y0064062D01*
X0346358Y0063934D01*
X0346673Y0063799D01*
X0346986Y0063656D01*
X0347295Y0063505D01*
X0347600Y0063347D01*
X0347901Y0063181D01*
X0348197Y0063008D01*
X0348490Y0062828D01*
X0348778Y0062641D01*
X0349061Y0062446D01*
X0349340Y0062245D01*
X0349613Y0062037D01*
X0349882Y0061822D01*
X0350144Y0061601D01*
X0350402Y0061373D01*
X0350654Y0061139D01*
X0350899Y0060899D01*
X0351139Y0060654D01*
X0351373Y0060402D01*
X0351601Y0060144D01*
X0351822Y0059882D01*
X0352037Y0059613D01*
X0352245Y0059340D01*
X0352446Y0059061D01*
X0352641Y0058778D01*
X0352828Y0058490D01*
X0353008Y0058197D01*
X0353181Y0057901D01*
X0353347Y0057600D01*
X0353505Y0057295D01*
X0353656Y0056986D01*
X0353799Y0056673D01*
X0353934Y0056358D01*
X0354062Y0056039D01*
X0354182Y0055716D01*
X0354293Y0055392D01*
X0354397Y0055064D01*
X0354493Y0054734D01*
X0354580Y0054402D01*
X0354660Y0054067D01*
X0354731Y0053731D01*
X0354794Y0053393D01*
X0354848Y0053054D01*
X0354895Y0052714D01*
X0354933Y0052372D01*
X0354962Y0052030D01*
X0354983Y0051687D01*
X0354996Y0051344D01*
X0355000Y0051000D01*
X0354996Y0050656D01*
X0354983Y0050313D01*
X0354962Y0049970D01*
X0354933Y0049628D01*
X0354895Y0049286D01*
X0354848Y0048946D01*
X0354794Y0048607D01*
X0354731Y0048269D01*
X0354660Y0047933D01*
X0354580Y0047598D01*
X0354493Y0047266D01*
X0354397Y0046936D01*
X0354293Y0046608D01*
X0354182Y0046284D01*
X0354062Y0045961D01*
X0353934Y0045642D01*
X0353799Y0045327D01*
X0353656Y0045014D01*
X0353505Y0044705D01*
X0353347Y0044400D01*
X0353181Y0044099D01*
X0353008Y0043803D01*
X0352828Y0043510D01*
X0352641Y0043222D01*
X0352446Y0042939D01*
X0352245Y0042660D01*
X0352037Y0042387D01*
X0351822Y0042118D01*
X0351601Y0041856D01*
X0351373Y0041598D01*
X0351139Y0041346D01*
X0350899Y0041101D01*
X0350654Y0040861D01*
X0350402Y0040627D01*
X0350144Y0040399D01*
X0349882Y0040178D01*
X0349613Y0039963D01*
X0349340Y0039755D01*
X0349061Y0039554D01*
X0348778Y0039359D01*
X0348490Y0039172D01*
X0348197Y0038992D01*
X0347901Y0038819D01*
X0347600Y0038653D01*
X0347295Y0038495D01*
X0346986Y0038344D01*
X0346673Y0038201D01*
X0346358Y0038066D01*
X0346039Y0037938D01*
X0345716Y0037818D01*
X0345392Y0037707D01*
X0345064Y0037603D01*
X0344734Y0037507D01*
X0344402Y0037420D01*
X0344067Y0037340D01*
X0343731Y0037269D01*
X0343393Y0037206D01*
X0343054Y0037152D01*
X0342714Y0037105D01*
X0342372Y0037067D01*
X0342030Y0037038D01*
X0341687Y0037017D01*
X0341344Y0037004D01*
X0341000Y0037000D01*
X0340656Y0037004D01*
X0340313Y0037017D01*
X0339970Y0037038D01*
X0339628Y0037067D01*
X0339286Y0037105D01*
X0338946Y0037152D01*
X0338607Y0037206D01*
X0338269Y0037269D01*
X0337933Y0037340D01*
X0337598Y0037420D01*
X0337266Y0037507D01*
X0336936Y0037603D01*
X0336608Y0037707D01*
X0336284Y0037818D01*
X0335961Y0037938D01*
X0335642Y0038066D01*
X0335327Y0038201D01*
X0335014Y0038344D01*
X0334705Y0038495D01*
X0334400Y0038653D01*
X0334099Y0038819D01*
X0333803Y0038992D01*
X0333510Y0039172D01*
X0333222Y0039359D01*
X0332939Y0039554D01*
X0332660Y0039755D01*
X0332387Y0039963D01*
X0332118Y0040178D01*
X0331856Y0040399D01*
X0331598Y0040627D01*
X0331346Y0040861D01*
X0331101Y0041101D01*
X0330861Y0041346D01*
X0330627Y0041598D01*
X0330399Y0041856D01*
X0330178Y0042118D01*
X0329963Y0042387D01*
X0329755Y0042660D01*
X0329554Y0042939D01*
X0329359Y0043222D01*
X0329172Y0043510D01*
X0328992Y0043803D01*
X0328819Y0044099D01*
X0328653Y0044400D01*
X0328495Y0044705D01*
X0328344Y0045014D01*
X0328201Y0045327D01*
X0328066Y0045642D01*
X0327938Y0045961D01*
X0327818Y0046284D01*
X0327707Y0046608D01*
X0327603Y0046936D01*
X0327507Y0047266D01*
X0327420Y0047598D01*
X0327340Y0047933D01*
X0327269Y0048269D01*
X0327206Y0048607D01*
X0327152Y0048946D01*
X0327105Y0049286D01*
X0327067Y0049628D01*
X0327038Y0049970D01*
X0327017Y0050313D01*
X0327004Y0050656D01*
X0327000Y0051000D01*
X0317000Y0066000D02*
X0317000Y0071000D01*
X0321000Y0075000D01*
X0322000Y0076000D01*
X0334000Y0076000D01*
X0334000Y0075000D01*
X0337000Y0075000D01*
X0337000Y0076500D01*
X0345000Y0076500D01*
X0345000Y0075000D01*
X0348000Y0075000D01*
X0348000Y0076000D01*
X0360000Y0076000D01*
X0361000Y0075000D01*
X0365000Y0071000D01*
X0365000Y0066000D01*
X0361000Y0075000D02*
X0348000Y0075000D01*
X0345000Y0075000D02*
X0337000Y0075000D01*
X0334000Y0075000D02*
X0321000Y0075000D01*
X0365000Y0031000D02*
X0361000Y0027000D01*
X0365000Y0031000D02*
X0365000Y0036000D01*
X0365000Y0046500D02*
X0365000Y0055500D01*
D12*
X0347500Y0057500D02*
X0347500Y0044500D01*
X0334500Y0044500D01*
X0334500Y0057500D01*
X0347500Y0057500D01*
X0338000Y0051000D02*
X0338002Y0051109D01*
X0338008Y0051218D01*
X0338018Y0051326D01*
X0338032Y0051434D01*
X0338049Y0051542D01*
X0338071Y0051649D01*
X0338096Y0051755D01*
X0338126Y0051859D01*
X0338159Y0051963D01*
X0338196Y0052066D01*
X0338236Y0052167D01*
X0338280Y0052266D01*
X0338328Y0052364D01*
X0338380Y0052461D01*
X0338434Y0052555D01*
X0338492Y0052647D01*
X0338554Y0052737D01*
X0338619Y0052824D01*
X0338686Y0052910D01*
X0338757Y0052993D01*
X0338831Y0053073D01*
X0338908Y0053150D01*
X0338987Y0053225D01*
X0339069Y0053296D01*
X0339154Y0053365D01*
X0339241Y0053430D01*
X0339330Y0053493D01*
X0339422Y0053551D01*
X0339516Y0053607D01*
X0339611Y0053659D01*
X0339709Y0053708D01*
X0339808Y0053753D01*
X0339909Y0053795D01*
X0340011Y0053832D01*
X0340114Y0053866D01*
X0340219Y0053897D01*
X0340325Y0053923D01*
X0340431Y0053946D01*
X0340539Y0053964D01*
X0340647Y0053979D01*
X0340755Y0053990D01*
X0340864Y0053997D01*
X0340973Y0054000D01*
X0341082Y0053999D01*
X0341191Y0053994D01*
X0341299Y0053985D01*
X0341407Y0053972D01*
X0341515Y0053955D01*
X0341622Y0053935D01*
X0341728Y0053910D01*
X0341833Y0053882D01*
X0341937Y0053850D01*
X0342040Y0053814D01*
X0342142Y0053774D01*
X0342242Y0053731D01*
X0342340Y0053684D01*
X0342437Y0053634D01*
X0342531Y0053580D01*
X0342624Y0053522D01*
X0342715Y0053462D01*
X0342803Y0053398D01*
X0342889Y0053331D01*
X0342972Y0053261D01*
X0343053Y0053188D01*
X0343131Y0053112D01*
X0343206Y0053033D01*
X0343279Y0052951D01*
X0343348Y0052867D01*
X0343414Y0052781D01*
X0343477Y0052692D01*
X0343537Y0052601D01*
X0343594Y0052508D01*
X0343647Y0052413D01*
X0343696Y0052316D01*
X0343742Y0052217D01*
X0343784Y0052117D01*
X0343823Y0052015D01*
X0343858Y0051911D01*
X0343889Y0051807D01*
X0343917Y0051702D01*
X0343940Y0051595D01*
X0343960Y0051488D01*
X0343976Y0051380D01*
X0343988Y0051272D01*
X0343996Y0051163D01*
X0344000Y0051054D01*
X0344000Y0050946D01*
X0343996Y0050837D01*
X0343988Y0050728D01*
X0343976Y0050620D01*
X0343960Y0050512D01*
X0343940Y0050405D01*
X0343917Y0050298D01*
X0343889Y0050193D01*
X0343858Y0050089D01*
X0343823Y0049985D01*
X0343784Y0049883D01*
X0343742Y0049783D01*
X0343696Y0049684D01*
X0343647Y0049587D01*
X0343594Y0049492D01*
X0343537Y0049399D01*
X0343477Y0049308D01*
X0343414Y0049219D01*
X0343348Y0049133D01*
X0343279Y0049049D01*
X0343206Y0048967D01*
X0343131Y0048888D01*
X0343053Y0048812D01*
X0342972Y0048739D01*
X0342889Y0048669D01*
X0342803Y0048602D01*
X0342715Y0048538D01*
X0342624Y0048478D01*
X0342531Y0048420D01*
X0342437Y0048366D01*
X0342340Y0048316D01*
X0342242Y0048269D01*
X0342142Y0048226D01*
X0342040Y0048186D01*
X0341937Y0048150D01*
X0341833Y0048118D01*
X0341728Y0048090D01*
X0341622Y0048065D01*
X0341515Y0048045D01*
X0341407Y0048028D01*
X0341299Y0048015D01*
X0341191Y0048006D01*
X0341082Y0048001D01*
X0340973Y0048000D01*
X0340864Y0048003D01*
X0340755Y0048010D01*
X0340647Y0048021D01*
X0340539Y0048036D01*
X0340431Y0048054D01*
X0340325Y0048077D01*
X0340219Y0048103D01*
X0340114Y0048134D01*
X0340011Y0048168D01*
X0339909Y0048205D01*
X0339808Y0048247D01*
X0339709Y0048292D01*
X0339611Y0048341D01*
X0339516Y0048393D01*
X0339422Y0048449D01*
X0339330Y0048507D01*
X0339241Y0048570D01*
X0339154Y0048635D01*
X0339069Y0048704D01*
X0338987Y0048775D01*
X0338908Y0048850D01*
X0338831Y0048927D01*
X0338757Y0049007D01*
X0338686Y0049090D01*
X0338619Y0049176D01*
X0338554Y0049263D01*
X0338492Y0049353D01*
X0338434Y0049445D01*
X0338380Y0049539D01*
X0338328Y0049636D01*
X0338280Y0049734D01*
X0338236Y0049833D01*
X0338196Y0049934D01*
X0338159Y0050037D01*
X0338126Y0050141D01*
X0338096Y0050245D01*
X0338071Y0050351D01*
X0338049Y0050458D01*
X0338032Y0050566D01*
X0338018Y0050674D01*
X0338008Y0050782D01*
X0338002Y0050891D01*
X0338000Y0051000D01*
X0337000Y0051000D02*
X0337002Y0051126D01*
X0337008Y0051252D01*
X0337018Y0051378D01*
X0337032Y0051504D01*
X0337050Y0051629D01*
X0337072Y0051753D01*
X0337097Y0051877D01*
X0337127Y0052000D01*
X0337160Y0052121D01*
X0337198Y0052242D01*
X0337239Y0052361D01*
X0337284Y0052480D01*
X0337332Y0052596D01*
X0337384Y0052711D01*
X0337440Y0052824D01*
X0337500Y0052936D01*
X0337563Y0053045D01*
X0337629Y0053153D01*
X0337698Y0053258D01*
X0337771Y0053361D01*
X0337848Y0053462D01*
X0337927Y0053560D01*
X0338009Y0053656D01*
X0338095Y0053749D01*
X0338183Y0053840D01*
X0338274Y0053927D01*
X0338368Y0054012D01*
X0338464Y0054093D01*
X0338563Y0054172D01*
X0338664Y0054247D01*
X0338768Y0054319D01*
X0338874Y0054388D01*
X0338982Y0054454D01*
X0339092Y0054516D01*
X0339204Y0054574D01*
X0339317Y0054629D01*
X0339433Y0054680D01*
X0339550Y0054728D01*
X0339668Y0054772D01*
X0339788Y0054812D01*
X0339909Y0054848D01*
X0340031Y0054881D01*
X0340154Y0054910D01*
X0340278Y0054934D01*
X0340402Y0054955D01*
X0340527Y0054972D01*
X0340653Y0054985D01*
X0340779Y0054994D01*
X0340905Y0054999D01*
X0341032Y0055000D01*
X0341158Y0054997D01*
X0341284Y0054990D01*
X0341410Y0054979D01*
X0341535Y0054964D01*
X0341660Y0054945D01*
X0341784Y0054922D01*
X0341908Y0054896D01*
X0342030Y0054865D01*
X0342152Y0054831D01*
X0342272Y0054792D01*
X0342391Y0054750D01*
X0342509Y0054705D01*
X0342625Y0054655D01*
X0342740Y0054602D01*
X0342852Y0054545D01*
X0342963Y0054485D01*
X0343072Y0054421D01*
X0343179Y0054354D01*
X0343284Y0054284D01*
X0343387Y0054210D01*
X0343487Y0054133D01*
X0343585Y0054053D01*
X0343680Y0053970D01*
X0343772Y0053884D01*
X0343862Y0053795D01*
X0343949Y0053703D01*
X0344032Y0053609D01*
X0344113Y0053512D01*
X0344191Y0053412D01*
X0344266Y0053310D01*
X0344337Y0053206D01*
X0344405Y0053099D01*
X0344469Y0052991D01*
X0344530Y0052880D01*
X0344588Y0052768D01*
X0344642Y0052654D01*
X0344692Y0052538D01*
X0344739Y0052421D01*
X0344782Y0052302D01*
X0344821Y0052182D01*
X0344857Y0052061D01*
X0344888Y0051938D01*
X0344916Y0051815D01*
X0344940Y0051691D01*
X0344960Y0051566D01*
X0344976Y0051441D01*
X0344988Y0051315D01*
X0344996Y0051189D01*
X0345000Y0051063D01*
X0345000Y0050937D01*
X0344996Y0050811D01*
X0344988Y0050685D01*
X0344976Y0050559D01*
X0344960Y0050434D01*
X0344940Y0050309D01*
X0344916Y0050185D01*
X0344888Y0050062D01*
X0344857Y0049939D01*
X0344821Y0049818D01*
X0344782Y0049698D01*
X0344739Y0049579D01*
X0344692Y0049462D01*
X0344642Y0049346D01*
X0344588Y0049232D01*
X0344530Y0049120D01*
X0344469Y0049009D01*
X0344405Y0048901D01*
X0344337Y0048794D01*
X0344266Y0048690D01*
X0344191Y0048588D01*
X0344113Y0048488D01*
X0344032Y0048391D01*
X0343949Y0048297D01*
X0343862Y0048205D01*
X0343772Y0048116D01*
X0343680Y0048030D01*
X0343585Y0047947D01*
X0343487Y0047867D01*
X0343387Y0047790D01*
X0343284Y0047716D01*
X0343179Y0047646D01*
X0343072Y0047579D01*
X0342963Y0047515D01*
X0342852Y0047455D01*
X0342740Y0047398D01*
X0342625Y0047345D01*
X0342509Y0047295D01*
X0342391Y0047250D01*
X0342272Y0047208D01*
X0342152Y0047169D01*
X0342030Y0047135D01*
X0341908Y0047104D01*
X0341784Y0047078D01*
X0341660Y0047055D01*
X0341535Y0047036D01*
X0341410Y0047021D01*
X0341284Y0047010D01*
X0341158Y0047003D01*
X0341032Y0047000D01*
X0340905Y0047001D01*
X0340779Y0047006D01*
X0340653Y0047015D01*
X0340527Y0047028D01*
X0340402Y0047045D01*
X0340278Y0047066D01*
X0340154Y0047090D01*
X0340031Y0047119D01*
X0339909Y0047152D01*
X0339788Y0047188D01*
X0339668Y0047228D01*
X0339550Y0047272D01*
X0339433Y0047320D01*
X0339317Y0047371D01*
X0339204Y0047426D01*
X0339092Y0047484D01*
X0338982Y0047546D01*
X0338874Y0047612D01*
X0338768Y0047681D01*
X0338664Y0047753D01*
X0338563Y0047828D01*
X0338464Y0047907D01*
X0338368Y0047988D01*
X0338274Y0048073D01*
X0338183Y0048160D01*
X0338095Y0048251D01*
X0338009Y0048344D01*
X0337927Y0048440D01*
X0337848Y0048538D01*
X0337771Y0048639D01*
X0337698Y0048742D01*
X0337629Y0048847D01*
X0337563Y0048955D01*
X0337500Y0049064D01*
X0337440Y0049176D01*
X0337384Y0049289D01*
X0337332Y0049404D01*
X0337284Y0049520D01*
X0337239Y0049639D01*
X0337198Y0049758D01*
X0337160Y0049879D01*
X0337127Y0050000D01*
X0337097Y0050123D01*
X0337072Y0050247D01*
X0337050Y0050371D01*
X0337032Y0050496D01*
X0337018Y0050622D01*
X0337008Y0050748D01*
X0337002Y0050874D01*
X0337000Y0051000D01*
X0272500Y0057500D02*
X0272500Y0044500D01*
X0259500Y0044500D01*
X0259500Y0057500D01*
X0272500Y0057500D01*
X0263000Y0051000D02*
X0263002Y0051109D01*
X0263008Y0051218D01*
X0263018Y0051326D01*
X0263032Y0051434D01*
X0263049Y0051542D01*
X0263071Y0051649D01*
X0263096Y0051755D01*
X0263126Y0051859D01*
X0263159Y0051963D01*
X0263196Y0052066D01*
X0263236Y0052167D01*
X0263280Y0052266D01*
X0263328Y0052364D01*
X0263380Y0052461D01*
X0263434Y0052555D01*
X0263492Y0052647D01*
X0263554Y0052737D01*
X0263619Y0052824D01*
X0263686Y0052910D01*
X0263757Y0052993D01*
X0263831Y0053073D01*
X0263908Y0053150D01*
X0263987Y0053225D01*
X0264069Y0053296D01*
X0264154Y0053365D01*
X0264241Y0053430D01*
X0264330Y0053493D01*
X0264422Y0053551D01*
X0264516Y0053607D01*
X0264611Y0053659D01*
X0264709Y0053708D01*
X0264808Y0053753D01*
X0264909Y0053795D01*
X0265011Y0053832D01*
X0265114Y0053866D01*
X0265219Y0053897D01*
X0265325Y0053923D01*
X0265431Y0053946D01*
X0265539Y0053964D01*
X0265647Y0053979D01*
X0265755Y0053990D01*
X0265864Y0053997D01*
X0265973Y0054000D01*
X0266082Y0053999D01*
X0266191Y0053994D01*
X0266299Y0053985D01*
X0266407Y0053972D01*
X0266515Y0053955D01*
X0266622Y0053935D01*
X0266728Y0053910D01*
X0266833Y0053882D01*
X0266937Y0053850D01*
X0267040Y0053814D01*
X0267142Y0053774D01*
X0267242Y0053731D01*
X0267340Y0053684D01*
X0267437Y0053634D01*
X0267531Y0053580D01*
X0267624Y0053522D01*
X0267715Y0053462D01*
X0267803Y0053398D01*
X0267889Y0053331D01*
X0267972Y0053261D01*
X0268053Y0053188D01*
X0268131Y0053112D01*
X0268206Y0053033D01*
X0268279Y0052951D01*
X0268348Y0052867D01*
X0268414Y0052781D01*
X0268477Y0052692D01*
X0268537Y0052601D01*
X0268594Y0052508D01*
X0268647Y0052413D01*
X0268696Y0052316D01*
X0268742Y0052217D01*
X0268784Y0052117D01*
X0268823Y0052015D01*
X0268858Y0051911D01*
X0268889Y0051807D01*
X0268917Y0051702D01*
X0268940Y0051595D01*
X0268960Y0051488D01*
X0268976Y0051380D01*
X0268988Y0051272D01*
X0268996Y0051163D01*
X0269000Y0051054D01*
X0269000Y0050946D01*
X0268996Y0050837D01*
X0268988Y0050728D01*
X0268976Y0050620D01*
X0268960Y0050512D01*
X0268940Y0050405D01*
X0268917Y0050298D01*
X0268889Y0050193D01*
X0268858Y0050089D01*
X0268823Y0049985D01*
X0268784Y0049883D01*
X0268742Y0049783D01*
X0268696Y0049684D01*
X0268647Y0049587D01*
X0268594Y0049492D01*
X0268537Y0049399D01*
X0268477Y0049308D01*
X0268414Y0049219D01*
X0268348Y0049133D01*
X0268279Y0049049D01*
X0268206Y0048967D01*
X0268131Y0048888D01*
X0268053Y0048812D01*
X0267972Y0048739D01*
X0267889Y0048669D01*
X0267803Y0048602D01*
X0267715Y0048538D01*
X0267624Y0048478D01*
X0267531Y0048420D01*
X0267437Y0048366D01*
X0267340Y0048316D01*
X0267242Y0048269D01*
X0267142Y0048226D01*
X0267040Y0048186D01*
X0266937Y0048150D01*
X0266833Y0048118D01*
X0266728Y0048090D01*
X0266622Y0048065D01*
X0266515Y0048045D01*
X0266407Y0048028D01*
X0266299Y0048015D01*
X0266191Y0048006D01*
X0266082Y0048001D01*
X0265973Y0048000D01*
X0265864Y0048003D01*
X0265755Y0048010D01*
X0265647Y0048021D01*
X0265539Y0048036D01*
X0265431Y0048054D01*
X0265325Y0048077D01*
X0265219Y0048103D01*
X0265114Y0048134D01*
X0265011Y0048168D01*
X0264909Y0048205D01*
X0264808Y0048247D01*
X0264709Y0048292D01*
X0264611Y0048341D01*
X0264516Y0048393D01*
X0264422Y0048449D01*
X0264330Y0048507D01*
X0264241Y0048570D01*
X0264154Y0048635D01*
X0264069Y0048704D01*
X0263987Y0048775D01*
X0263908Y0048850D01*
X0263831Y0048927D01*
X0263757Y0049007D01*
X0263686Y0049090D01*
X0263619Y0049176D01*
X0263554Y0049263D01*
X0263492Y0049353D01*
X0263434Y0049445D01*
X0263380Y0049539D01*
X0263328Y0049636D01*
X0263280Y0049734D01*
X0263236Y0049833D01*
X0263196Y0049934D01*
X0263159Y0050037D01*
X0263126Y0050141D01*
X0263096Y0050245D01*
X0263071Y0050351D01*
X0263049Y0050458D01*
X0263032Y0050566D01*
X0263018Y0050674D01*
X0263008Y0050782D01*
X0263002Y0050891D01*
X0263000Y0051000D01*
X0262000Y0051000D02*
X0262002Y0051126D01*
X0262008Y0051252D01*
X0262018Y0051378D01*
X0262032Y0051504D01*
X0262050Y0051629D01*
X0262072Y0051753D01*
X0262097Y0051877D01*
X0262127Y0052000D01*
X0262160Y0052121D01*
X0262198Y0052242D01*
X0262239Y0052361D01*
X0262284Y0052480D01*
X0262332Y0052596D01*
X0262384Y0052711D01*
X0262440Y0052824D01*
X0262500Y0052936D01*
X0262563Y0053045D01*
X0262629Y0053153D01*
X0262698Y0053258D01*
X0262771Y0053361D01*
X0262848Y0053462D01*
X0262927Y0053560D01*
X0263009Y0053656D01*
X0263095Y0053749D01*
X0263183Y0053840D01*
X0263274Y0053927D01*
X0263368Y0054012D01*
X0263464Y0054093D01*
X0263563Y0054172D01*
X0263664Y0054247D01*
X0263768Y0054319D01*
X0263874Y0054388D01*
X0263982Y0054454D01*
X0264092Y0054516D01*
X0264204Y0054574D01*
X0264317Y0054629D01*
X0264433Y0054680D01*
X0264550Y0054728D01*
X0264668Y0054772D01*
X0264788Y0054812D01*
X0264909Y0054848D01*
X0265031Y0054881D01*
X0265154Y0054910D01*
X0265278Y0054934D01*
X0265402Y0054955D01*
X0265527Y0054972D01*
X0265653Y0054985D01*
X0265779Y0054994D01*
X0265905Y0054999D01*
X0266032Y0055000D01*
X0266158Y0054997D01*
X0266284Y0054990D01*
X0266410Y0054979D01*
X0266535Y0054964D01*
X0266660Y0054945D01*
X0266784Y0054922D01*
X0266908Y0054896D01*
X0267030Y0054865D01*
X0267152Y0054831D01*
X0267272Y0054792D01*
X0267391Y0054750D01*
X0267509Y0054705D01*
X0267625Y0054655D01*
X0267740Y0054602D01*
X0267852Y0054545D01*
X0267963Y0054485D01*
X0268072Y0054421D01*
X0268179Y0054354D01*
X0268284Y0054284D01*
X0268387Y0054210D01*
X0268487Y0054133D01*
X0268585Y0054053D01*
X0268680Y0053970D01*
X0268772Y0053884D01*
X0268862Y0053795D01*
X0268949Y0053703D01*
X0269032Y0053609D01*
X0269113Y0053512D01*
X0269191Y0053412D01*
X0269266Y0053310D01*
X0269337Y0053206D01*
X0269405Y0053099D01*
X0269469Y0052991D01*
X0269530Y0052880D01*
X0269588Y0052768D01*
X0269642Y0052654D01*
X0269692Y0052538D01*
X0269739Y0052421D01*
X0269782Y0052302D01*
X0269821Y0052182D01*
X0269857Y0052061D01*
X0269888Y0051938D01*
X0269916Y0051815D01*
X0269940Y0051691D01*
X0269960Y0051566D01*
X0269976Y0051441D01*
X0269988Y0051315D01*
X0269996Y0051189D01*
X0270000Y0051063D01*
X0270000Y0050937D01*
X0269996Y0050811D01*
X0269988Y0050685D01*
X0269976Y0050559D01*
X0269960Y0050434D01*
X0269940Y0050309D01*
X0269916Y0050185D01*
X0269888Y0050062D01*
X0269857Y0049939D01*
X0269821Y0049818D01*
X0269782Y0049698D01*
X0269739Y0049579D01*
X0269692Y0049462D01*
X0269642Y0049346D01*
X0269588Y0049232D01*
X0269530Y0049120D01*
X0269469Y0049009D01*
X0269405Y0048901D01*
X0269337Y0048794D01*
X0269266Y0048690D01*
X0269191Y0048588D01*
X0269113Y0048488D01*
X0269032Y0048391D01*
X0268949Y0048297D01*
X0268862Y0048205D01*
X0268772Y0048116D01*
X0268680Y0048030D01*
X0268585Y0047947D01*
X0268487Y0047867D01*
X0268387Y0047790D01*
X0268284Y0047716D01*
X0268179Y0047646D01*
X0268072Y0047579D01*
X0267963Y0047515D01*
X0267852Y0047455D01*
X0267740Y0047398D01*
X0267625Y0047345D01*
X0267509Y0047295D01*
X0267391Y0047250D01*
X0267272Y0047208D01*
X0267152Y0047169D01*
X0267030Y0047135D01*
X0266908Y0047104D01*
X0266784Y0047078D01*
X0266660Y0047055D01*
X0266535Y0047036D01*
X0266410Y0047021D01*
X0266284Y0047010D01*
X0266158Y0047003D01*
X0266032Y0047000D01*
X0265905Y0047001D01*
X0265779Y0047006D01*
X0265653Y0047015D01*
X0265527Y0047028D01*
X0265402Y0047045D01*
X0265278Y0047066D01*
X0265154Y0047090D01*
X0265031Y0047119D01*
X0264909Y0047152D01*
X0264788Y0047188D01*
X0264668Y0047228D01*
X0264550Y0047272D01*
X0264433Y0047320D01*
X0264317Y0047371D01*
X0264204Y0047426D01*
X0264092Y0047484D01*
X0263982Y0047546D01*
X0263874Y0047612D01*
X0263768Y0047681D01*
X0263664Y0047753D01*
X0263563Y0047828D01*
X0263464Y0047907D01*
X0263368Y0047988D01*
X0263274Y0048073D01*
X0263183Y0048160D01*
X0263095Y0048251D01*
X0263009Y0048344D01*
X0262927Y0048440D01*
X0262848Y0048538D01*
X0262771Y0048639D01*
X0262698Y0048742D01*
X0262629Y0048847D01*
X0262563Y0048955D01*
X0262500Y0049064D01*
X0262440Y0049176D01*
X0262384Y0049289D01*
X0262332Y0049404D01*
X0262284Y0049520D01*
X0262239Y0049639D01*
X0262198Y0049758D01*
X0262160Y0049879D01*
X0262127Y0050000D01*
X0262097Y0050123D01*
X0262072Y0050247D01*
X0262050Y0050371D01*
X0262032Y0050496D01*
X0262018Y0050622D01*
X0262008Y0050748D01*
X0262002Y0050874D01*
X0262000Y0051000D01*
D13*
X0250250Y0064250D02*
X0247750Y0064250D01*
X0250250Y0064250D02*
X0248125Y0066750D01*
X0248875Y0068750D02*
X0248948Y0068748D01*
X0249020Y0068743D01*
X0249092Y0068734D01*
X0249164Y0068721D01*
X0249235Y0068705D01*
X0249305Y0068685D01*
X0249373Y0068661D01*
X0249441Y0068635D01*
X0249507Y0068604D01*
X0249572Y0068571D01*
X0249634Y0068534D01*
X0249695Y0068495D01*
X0249754Y0068452D01*
X0249811Y0068406D01*
X0249865Y0068358D01*
X0249916Y0068307D01*
X0249966Y0068253D01*
X0250012Y0068197D01*
X0250055Y0068139D01*
X0250096Y0068078D01*
X0250133Y0068016D01*
X0250167Y0067952D01*
X0250198Y0067886D01*
X0250226Y0067819D01*
X0250250Y0067750D01*
X0248125Y0066750D02*
X0248079Y0066796D01*
X0248035Y0066845D01*
X0247995Y0066896D01*
X0247957Y0066949D01*
X0247922Y0067004D01*
X0247890Y0067061D01*
X0247861Y0067119D01*
X0247835Y0067179D01*
X0247813Y0067241D01*
X0247794Y0067303D01*
X0247778Y0067366D01*
X0247766Y0067430D01*
X0247757Y0067495D01*
X0247752Y0067560D01*
X0247750Y0067625D01*
X0247752Y0067690D01*
X0247758Y0067756D01*
X0247767Y0067820D01*
X0247780Y0067884D01*
X0247797Y0067948D01*
X0247818Y0068010D01*
X0247842Y0068071D01*
X0247870Y0068130D01*
X0247901Y0068188D01*
X0247935Y0068243D01*
X0247973Y0068297D01*
X0248013Y0068348D01*
X0248057Y0068397D01*
X0248103Y0068443D01*
X0248152Y0068487D01*
X0248203Y0068527D01*
X0248257Y0068565D01*
X0248313Y0068599D01*
X0248370Y0068630D01*
X0248429Y0068658D01*
X0248490Y0068682D01*
X0248552Y0068703D01*
X0248616Y0068720D01*
X0248680Y0068733D01*
X0248744Y0068742D01*
X0248810Y0068748D01*
X0248875Y0068750D01*
X0266525Y0078750D02*
X0266525Y0083250D01*
X0266525Y0081250D02*
X0269025Y0081250D01*
X0269025Y0083250D02*
X0269025Y0078750D01*
X0270975Y0078250D02*
X0272975Y0078250D01*
X0274925Y0078750D02*
X0274925Y0083250D01*
X0277425Y0083250D02*
X0274925Y0078750D01*
X0277425Y0078750D02*
X0277425Y0083250D01*
X0279275Y0083250D02*
X0281775Y0083250D01*
X0280525Y0083250D02*
X0280525Y0078750D01*
X0284500Y0078750D02*
X0285750Y0078750D01*
X0285750Y0083250D01*
X0284500Y0083250D01*
X0284438Y0083248D01*
X0284377Y0083242D01*
X0284316Y0083233D01*
X0284256Y0083220D01*
X0284197Y0083203D01*
X0284139Y0083182D01*
X0284082Y0083158D01*
X0284027Y0083131D01*
X0283974Y0083100D01*
X0283922Y0083066D01*
X0283873Y0083029D01*
X0283826Y0082989D01*
X0283782Y0082946D01*
X0283741Y0082901D01*
X0283702Y0082853D01*
X0283666Y0082802D01*
X0283634Y0082750D01*
X0283605Y0082696D01*
X0283579Y0082640D01*
X0283557Y0082582D01*
X0283538Y0082524D01*
X0283523Y0082464D01*
X0283512Y0082403D01*
X0283504Y0082342D01*
X0283500Y0082281D01*
X0283500Y0082219D01*
X0283504Y0082158D01*
X0283512Y0082097D01*
X0283523Y0082036D01*
X0283538Y0081976D01*
X0283557Y0081918D01*
X0283579Y0081860D01*
X0283605Y0081804D01*
X0283634Y0081750D01*
X0283666Y0081698D01*
X0283702Y0081647D01*
X0283741Y0081599D01*
X0283782Y0081554D01*
X0283826Y0081511D01*
X0283873Y0081471D01*
X0283922Y0081434D01*
X0283974Y0081400D01*
X0284027Y0081369D01*
X0284082Y0081342D01*
X0284139Y0081318D01*
X0284197Y0081297D01*
X0284256Y0081280D01*
X0284316Y0081267D01*
X0284377Y0081258D01*
X0284438Y0081252D01*
X0284500Y0081250D01*
X0285750Y0081250D01*
X0284500Y0081250D02*
X0284431Y0081248D01*
X0284362Y0081242D01*
X0284294Y0081233D01*
X0284227Y0081220D01*
X0284160Y0081203D01*
X0284094Y0081182D01*
X0284030Y0081158D01*
X0283967Y0081130D01*
X0283905Y0081099D01*
X0283845Y0081065D01*
X0283788Y0081027D01*
X0283732Y0080986D01*
X0283679Y0080943D01*
X0283628Y0080896D01*
X0283580Y0080847D01*
X0283535Y0080795D01*
X0283493Y0080740D01*
X0283454Y0080684D01*
X0283417Y0080625D01*
X0283385Y0080564D01*
X0283355Y0080502D01*
X0283329Y0080438D01*
X0283307Y0080373D01*
X0283288Y0080307D01*
X0283273Y0080240D01*
X0283262Y0080172D01*
X0283254Y0080103D01*
X0283250Y0080034D01*
X0283250Y0079966D01*
X0283254Y0079897D01*
X0283262Y0079828D01*
X0283273Y0079760D01*
X0283288Y0079693D01*
X0283307Y0079627D01*
X0283329Y0079562D01*
X0283355Y0079498D01*
X0283385Y0079436D01*
X0283417Y0079375D01*
X0283454Y0079316D01*
X0283493Y0079260D01*
X0283535Y0079205D01*
X0283580Y0079153D01*
X0283628Y0079104D01*
X0283679Y0079057D01*
X0283732Y0079014D01*
X0283788Y0078973D01*
X0283845Y0078935D01*
X0283905Y0078901D01*
X0283967Y0078870D01*
X0284030Y0078842D01*
X0284094Y0078818D01*
X0284160Y0078797D01*
X0284227Y0078780D01*
X0284294Y0078767D01*
X0284362Y0078758D01*
X0284431Y0078752D01*
X0284500Y0078750D01*
X0285000Y0068750D02*
X0285000Y0064250D01*
X0286250Y0064250D02*
X0283750Y0064250D01*
X0286250Y0067750D02*
X0285000Y0068750D01*
X0284750Y0037250D02*
X0286250Y0037250D01*
X0284750Y0037250D02*
X0284688Y0037248D01*
X0284627Y0037242D01*
X0284566Y0037233D01*
X0284506Y0037220D01*
X0284447Y0037203D01*
X0284389Y0037182D01*
X0284332Y0037158D01*
X0284277Y0037131D01*
X0284224Y0037100D01*
X0284172Y0037066D01*
X0284123Y0037029D01*
X0284076Y0036989D01*
X0284032Y0036946D01*
X0283991Y0036901D01*
X0283952Y0036853D01*
X0283916Y0036802D01*
X0283884Y0036750D01*
X0283855Y0036696D01*
X0283829Y0036640D01*
X0283807Y0036582D01*
X0283788Y0036524D01*
X0283773Y0036464D01*
X0283762Y0036403D01*
X0283754Y0036342D01*
X0283750Y0036281D01*
X0283750Y0036219D01*
X0283754Y0036158D01*
X0283762Y0036097D01*
X0283773Y0036036D01*
X0283788Y0035976D01*
X0283807Y0035918D01*
X0283829Y0035860D01*
X0283855Y0035804D01*
X0283884Y0035750D01*
X0283916Y0035698D01*
X0283952Y0035647D01*
X0283991Y0035599D01*
X0284032Y0035554D01*
X0284076Y0035511D01*
X0284123Y0035471D01*
X0284172Y0035434D01*
X0284224Y0035400D01*
X0284277Y0035369D01*
X0284332Y0035342D01*
X0284389Y0035318D01*
X0284447Y0035297D01*
X0284506Y0035280D01*
X0284566Y0035267D01*
X0284627Y0035258D01*
X0284688Y0035252D01*
X0284750Y0035250D01*
X0285750Y0035250D01*
X0285000Y0035250D02*
X0284931Y0035248D01*
X0284862Y0035242D01*
X0284794Y0035233D01*
X0284727Y0035220D01*
X0284660Y0035203D01*
X0284594Y0035182D01*
X0284530Y0035158D01*
X0284467Y0035130D01*
X0284405Y0035099D01*
X0284345Y0035065D01*
X0284288Y0035027D01*
X0284232Y0034986D01*
X0284179Y0034943D01*
X0284128Y0034896D01*
X0284080Y0034847D01*
X0284035Y0034795D01*
X0283993Y0034740D01*
X0283954Y0034684D01*
X0283917Y0034625D01*
X0283885Y0034564D01*
X0283855Y0034502D01*
X0283829Y0034438D01*
X0283807Y0034373D01*
X0283788Y0034307D01*
X0283773Y0034240D01*
X0283762Y0034172D01*
X0283754Y0034103D01*
X0283750Y0034034D01*
X0283750Y0033966D01*
X0283754Y0033897D01*
X0283762Y0033828D01*
X0283773Y0033760D01*
X0283788Y0033693D01*
X0283807Y0033627D01*
X0283829Y0033562D01*
X0283855Y0033498D01*
X0283885Y0033436D01*
X0283917Y0033375D01*
X0283954Y0033316D01*
X0283993Y0033260D01*
X0284035Y0033205D01*
X0284080Y0033153D01*
X0284128Y0033104D01*
X0284179Y0033057D01*
X0284232Y0033014D01*
X0284288Y0032973D01*
X0284345Y0032935D01*
X0284405Y0032901D01*
X0284467Y0032870D01*
X0284530Y0032842D01*
X0284594Y0032818D01*
X0284660Y0032797D01*
X0284727Y0032780D01*
X0284794Y0032767D01*
X0284862Y0032758D01*
X0284931Y0032752D01*
X0285000Y0032750D01*
X0286250Y0032750D01*
X0322250Y0033750D02*
X0324750Y0033750D01*
X0323750Y0037250D01*
X0323000Y0034750D02*
X0323000Y0032750D01*
X0322750Y0064250D02*
X0325250Y0064250D01*
X0323125Y0066750D01*
X0323875Y0068750D02*
X0323948Y0068748D01*
X0324020Y0068743D01*
X0324092Y0068734D01*
X0324164Y0068721D01*
X0324235Y0068705D01*
X0324305Y0068685D01*
X0324373Y0068661D01*
X0324441Y0068635D01*
X0324507Y0068604D01*
X0324572Y0068571D01*
X0324634Y0068534D01*
X0324695Y0068495D01*
X0324754Y0068452D01*
X0324811Y0068406D01*
X0324865Y0068358D01*
X0324916Y0068307D01*
X0324966Y0068253D01*
X0325012Y0068197D01*
X0325055Y0068139D01*
X0325096Y0068078D01*
X0325133Y0068016D01*
X0325167Y0067952D01*
X0325198Y0067886D01*
X0325226Y0067819D01*
X0325250Y0067750D01*
X0323125Y0066750D02*
X0323079Y0066796D01*
X0323035Y0066845D01*
X0322995Y0066896D01*
X0322957Y0066949D01*
X0322922Y0067004D01*
X0322890Y0067061D01*
X0322861Y0067119D01*
X0322835Y0067179D01*
X0322813Y0067241D01*
X0322794Y0067303D01*
X0322778Y0067366D01*
X0322766Y0067430D01*
X0322757Y0067495D01*
X0322752Y0067560D01*
X0322750Y0067625D01*
X0322752Y0067690D01*
X0322758Y0067756D01*
X0322767Y0067820D01*
X0322780Y0067884D01*
X0322797Y0067948D01*
X0322818Y0068010D01*
X0322842Y0068071D01*
X0322870Y0068130D01*
X0322901Y0068188D01*
X0322935Y0068243D01*
X0322973Y0068297D01*
X0323013Y0068348D01*
X0323057Y0068397D01*
X0323103Y0068443D01*
X0323152Y0068487D01*
X0323203Y0068527D01*
X0323257Y0068565D01*
X0323313Y0068599D01*
X0323370Y0068630D01*
X0323429Y0068658D01*
X0323490Y0068682D01*
X0323552Y0068703D01*
X0323616Y0068720D01*
X0323680Y0068733D01*
X0323744Y0068742D01*
X0323810Y0068748D01*
X0323875Y0068750D01*
X0340975Y0078750D02*
X0340975Y0083250D01*
X0342475Y0080750D01*
X0343975Y0083250D01*
X0343975Y0078750D01*
X0345975Y0078250D02*
X0347975Y0078250D01*
X0349925Y0078750D02*
X0349925Y0083250D01*
X0352425Y0083250D02*
X0349925Y0078750D01*
X0352425Y0078750D02*
X0352425Y0083250D01*
X0354275Y0083250D02*
X0356775Y0083250D01*
X0355525Y0083250D02*
X0355525Y0078750D01*
X0359500Y0078750D02*
X0360750Y0078750D01*
X0360750Y0083250D01*
X0359500Y0083250D01*
X0359438Y0083248D01*
X0359377Y0083242D01*
X0359316Y0083233D01*
X0359256Y0083220D01*
X0359197Y0083203D01*
X0359139Y0083182D01*
X0359082Y0083158D01*
X0359027Y0083131D01*
X0358974Y0083100D01*
X0358922Y0083066D01*
X0358873Y0083029D01*
X0358826Y0082989D01*
X0358782Y0082946D01*
X0358741Y0082901D01*
X0358702Y0082853D01*
X0358666Y0082802D01*
X0358634Y0082750D01*
X0358605Y0082696D01*
X0358579Y0082640D01*
X0358557Y0082582D01*
X0358538Y0082524D01*
X0358523Y0082464D01*
X0358512Y0082403D01*
X0358504Y0082342D01*
X0358500Y0082281D01*
X0358500Y0082219D01*
X0358504Y0082158D01*
X0358512Y0082097D01*
X0358523Y0082036D01*
X0358538Y0081976D01*
X0358557Y0081918D01*
X0358579Y0081860D01*
X0358605Y0081804D01*
X0358634Y0081750D01*
X0358666Y0081698D01*
X0358702Y0081647D01*
X0358741Y0081599D01*
X0358782Y0081554D01*
X0358826Y0081511D01*
X0358873Y0081471D01*
X0358922Y0081434D01*
X0358974Y0081400D01*
X0359027Y0081369D01*
X0359082Y0081342D01*
X0359139Y0081318D01*
X0359197Y0081297D01*
X0359256Y0081280D01*
X0359316Y0081267D01*
X0359377Y0081258D01*
X0359438Y0081252D01*
X0359500Y0081250D01*
X0360750Y0081250D01*
X0359500Y0081250D02*
X0359431Y0081248D01*
X0359362Y0081242D01*
X0359294Y0081233D01*
X0359227Y0081220D01*
X0359160Y0081203D01*
X0359094Y0081182D01*
X0359030Y0081158D01*
X0358967Y0081130D01*
X0358905Y0081099D01*
X0358845Y0081065D01*
X0358788Y0081027D01*
X0358732Y0080986D01*
X0358679Y0080943D01*
X0358628Y0080896D01*
X0358580Y0080847D01*
X0358535Y0080795D01*
X0358493Y0080740D01*
X0358454Y0080684D01*
X0358417Y0080625D01*
X0358385Y0080564D01*
X0358355Y0080502D01*
X0358329Y0080438D01*
X0358307Y0080373D01*
X0358288Y0080307D01*
X0358273Y0080240D01*
X0358262Y0080172D01*
X0358254Y0080103D01*
X0358250Y0080034D01*
X0358250Y0079966D01*
X0358254Y0079897D01*
X0358262Y0079828D01*
X0358273Y0079760D01*
X0358288Y0079693D01*
X0358307Y0079627D01*
X0358329Y0079562D01*
X0358355Y0079498D01*
X0358385Y0079436D01*
X0358417Y0079375D01*
X0358454Y0079316D01*
X0358493Y0079260D01*
X0358535Y0079205D01*
X0358580Y0079153D01*
X0358628Y0079104D01*
X0358679Y0079057D01*
X0358732Y0079014D01*
X0358788Y0078973D01*
X0358845Y0078935D01*
X0358905Y0078901D01*
X0358967Y0078870D01*
X0359030Y0078842D01*
X0359094Y0078818D01*
X0359160Y0078797D01*
X0359227Y0078780D01*
X0359294Y0078767D01*
X0359362Y0078758D01*
X0359431Y0078752D01*
X0359500Y0078750D01*
X0360000Y0068750D02*
X0360000Y0064250D01*
X0361250Y0064250D02*
X0358750Y0064250D01*
X0361250Y0067750D02*
X0360000Y0068750D01*
X0359750Y0037250D02*
X0361250Y0037250D01*
X0359750Y0037250D02*
X0359688Y0037248D01*
X0359627Y0037242D01*
X0359566Y0037233D01*
X0359506Y0037220D01*
X0359447Y0037203D01*
X0359389Y0037182D01*
X0359332Y0037158D01*
X0359277Y0037131D01*
X0359224Y0037100D01*
X0359172Y0037066D01*
X0359123Y0037029D01*
X0359076Y0036989D01*
X0359032Y0036946D01*
X0358991Y0036901D01*
X0358952Y0036853D01*
X0358916Y0036802D01*
X0358884Y0036750D01*
X0358855Y0036696D01*
X0358829Y0036640D01*
X0358807Y0036582D01*
X0358788Y0036524D01*
X0358773Y0036464D01*
X0358762Y0036403D01*
X0358754Y0036342D01*
X0358750Y0036281D01*
X0358750Y0036219D01*
X0358754Y0036158D01*
X0358762Y0036097D01*
X0358773Y0036036D01*
X0358788Y0035976D01*
X0358807Y0035918D01*
X0358829Y0035860D01*
X0358855Y0035804D01*
X0358884Y0035750D01*
X0358916Y0035698D01*
X0358952Y0035647D01*
X0358991Y0035599D01*
X0359032Y0035554D01*
X0359076Y0035511D01*
X0359123Y0035471D01*
X0359172Y0035434D01*
X0359224Y0035400D01*
X0359277Y0035369D01*
X0359332Y0035342D01*
X0359389Y0035318D01*
X0359447Y0035297D01*
X0359506Y0035280D01*
X0359566Y0035267D01*
X0359627Y0035258D01*
X0359688Y0035252D01*
X0359750Y0035250D01*
X0360750Y0035250D01*
X0360000Y0035250D02*
X0359931Y0035248D01*
X0359862Y0035242D01*
X0359794Y0035233D01*
X0359727Y0035220D01*
X0359660Y0035203D01*
X0359594Y0035182D01*
X0359530Y0035158D01*
X0359467Y0035130D01*
X0359405Y0035099D01*
X0359345Y0035065D01*
X0359288Y0035027D01*
X0359232Y0034986D01*
X0359179Y0034943D01*
X0359128Y0034896D01*
X0359080Y0034847D01*
X0359035Y0034795D01*
X0358993Y0034740D01*
X0358954Y0034684D01*
X0358917Y0034625D01*
X0358885Y0034564D01*
X0358855Y0034502D01*
X0358829Y0034438D01*
X0358807Y0034373D01*
X0358788Y0034307D01*
X0358773Y0034240D01*
X0358762Y0034172D01*
X0358754Y0034103D01*
X0358750Y0034034D01*
X0358750Y0033966D01*
X0358754Y0033897D01*
X0358762Y0033828D01*
X0358773Y0033760D01*
X0358788Y0033693D01*
X0358807Y0033627D01*
X0358829Y0033562D01*
X0358855Y0033498D01*
X0358885Y0033436D01*
X0358917Y0033375D01*
X0358954Y0033316D01*
X0358993Y0033260D01*
X0359035Y0033205D01*
X0359080Y0033153D01*
X0359128Y0033104D01*
X0359179Y0033057D01*
X0359232Y0033014D01*
X0359288Y0032973D01*
X0359345Y0032935D01*
X0359405Y0032901D01*
X0359467Y0032870D01*
X0359530Y0032842D01*
X0359594Y0032818D01*
X0359660Y0032797D01*
X0359727Y0032780D01*
X0359794Y0032767D01*
X0359862Y0032758D01*
X0359931Y0032752D01*
X0360000Y0032750D01*
X0361250Y0032750D01*
X0249750Y0033750D02*
X0247250Y0033750D01*
X0248000Y0034750D02*
X0248000Y0032750D01*
X0249750Y0033750D02*
X0248750Y0037250D01*
D14*
X0252750Y0027000D03*
X0279250Y0027000D03*
X0279250Y0075000D03*
X0252750Y0075000D03*
X0327750Y0075000D03*
X0354250Y0075000D03*
X0354250Y0027000D03*
X0327750Y0027000D03*
M02*
