G75*
%MOIN*%
%OFA0B0*%
%FSLAX25Y25*%
%IPPOS*%
%LPD*%
%AMOC8*
5,1,8,0,0,1.08239X$1,22.5*
%
%ADD10C,0.04737*%
%ADD11C,0.07800*%
%ADD12R,0.05950X0.05950*%
%ADD13C,0.05950*%
%ADD14C,0.07850*%
%ADD15C,0.07900*%
%ADD16OC8,0.06000*%
%ADD17C,0.06800*%
%ADD18C,0.06000*%
%ADD19C,0.05918*%
%ADD20C,0.03778*%
D10*
X0011000Y0011000D03*
X0011000Y0621000D03*
X0383500Y0621000D03*
D11*
X0208500Y0093500D03*
X0208500Y0033500D03*
X0048500Y0033500D03*
X0048500Y0093500D03*
D12*
X0058500Y0033500D03*
D13*
X0068500Y0033500D03*
X0078500Y0033500D03*
X0088500Y0033500D03*
X0098500Y0033500D03*
X0108500Y0033500D03*
X0118500Y0033500D03*
X0128500Y0033500D03*
X0138500Y0033500D03*
X0148500Y0033500D03*
X0158500Y0033500D03*
X0168500Y0033500D03*
X0178500Y0033500D03*
X0188500Y0033500D03*
X0198500Y0033500D03*
X0198500Y0093500D03*
X0188500Y0093500D03*
X0178500Y0093500D03*
X0168500Y0093500D03*
X0158500Y0093500D03*
X0148500Y0093500D03*
X0138500Y0093500D03*
X0128500Y0093500D03*
X0118500Y0093500D03*
X0108500Y0093500D03*
X0098500Y0093500D03*
X0088500Y0093500D03*
X0078500Y0093500D03*
X0068500Y0093500D03*
X0058500Y0093500D03*
D14*
X0237875Y0060800D02*
X0244925Y0060800D01*
X0244925Y0041200D02*
X0237875Y0041200D01*
X0287075Y0041200D02*
X0294125Y0041200D01*
X0294125Y0060800D02*
X0287075Y0060800D01*
X0312875Y0060800D02*
X0319925Y0060800D01*
X0319925Y0041200D02*
X0312875Y0041200D01*
X0362075Y0041200D02*
X0369125Y0041200D01*
X0369125Y0060800D02*
X0362075Y0060800D01*
D15*
X0341000Y0068700D03*
X0341000Y0033300D03*
X0266000Y0033300D03*
X0266000Y0068700D03*
D16*
X0251000Y0091000D03*
X0291000Y0091000D03*
X0326000Y0091000D03*
X0366000Y0091000D03*
X0348500Y0221000D03*
X0348500Y0251000D03*
X0348500Y0281000D03*
X0348500Y0311000D03*
X0348500Y0371000D03*
X0348500Y0401000D03*
X0348500Y0461000D03*
X0348500Y0491000D03*
X0348500Y0521000D03*
X0308500Y0521000D03*
X0293500Y0521000D03*
X0283500Y0521000D03*
X0283500Y0491000D03*
X0293500Y0491000D03*
X0308500Y0491000D03*
X0308500Y0461000D03*
X0293500Y0461000D03*
X0283500Y0461000D03*
X0283500Y0401000D03*
X0293500Y0401000D03*
X0308500Y0401000D03*
X0308500Y0371000D03*
X0293500Y0371000D03*
X0283500Y0371000D03*
X0283500Y0311000D03*
X0293500Y0311000D03*
X0308500Y0311000D03*
X0308500Y0281000D03*
X0293500Y0281000D03*
X0283500Y0281000D03*
X0283500Y0251000D03*
X0293500Y0251000D03*
X0308500Y0251000D03*
X0308500Y0221000D03*
X0293500Y0221000D03*
X0283500Y0221000D03*
X0243500Y0221000D03*
X0243500Y0251000D03*
X0243500Y0281000D03*
X0243500Y0311000D03*
X0243500Y0341000D03*
X0243500Y0371000D03*
X0243500Y0401000D03*
X0243500Y0431000D03*
X0243500Y0461000D03*
X0243500Y0491000D03*
X0243500Y0521000D03*
X0243500Y0551000D03*
X0203500Y0551000D03*
X0188500Y0551000D03*
X0178500Y0551000D03*
X0178500Y0521000D03*
X0188500Y0521000D03*
X0203500Y0521000D03*
X0203500Y0491000D03*
X0188500Y0491000D03*
X0178500Y0491000D03*
X0178500Y0461000D03*
X0188500Y0461000D03*
X0203500Y0461000D03*
X0203500Y0431000D03*
X0188500Y0431000D03*
X0178500Y0431000D03*
X0178500Y0401000D03*
X0188500Y0401000D03*
X0203500Y0401000D03*
X0203500Y0371000D03*
X0188500Y0371000D03*
X0178500Y0371000D03*
X0178500Y0341000D03*
X0188500Y0341000D03*
X0203500Y0341000D03*
X0203500Y0311000D03*
X0188500Y0311000D03*
X0178500Y0311000D03*
X0178500Y0281000D03*
X0188500Y0281000D03*
X0203500Y0281000D03*
X0203500Y0251000D03*
X0188500Y0251000D03*
X0178500Y0251000D03*
X0178500Y0221000D03*
X0188500Y0221000D03*
X0203500Y0221000D03*
X0143500Y0221000D03*
X0143500Y0251000D03*
X0143500Y0281000D03*
X0143500Y0311000D03*
X0143500Y0341000D03*
X0143500Y0371000D03*
X0143500Y0401000D03*
X0143500Y0431000D03*
X0143500Y0461000D03*
X0143500Y0491000D03*
X0143500Y0521000D03*
X0103500Y0521000D03*
X0088500Y0521000D03*
X0078500Y0521000D03*
X0078500Y0491000D03*
X0088500Y0491000D03*
X0103500Y0491000D03*
X0103500Y0461000D03*
X0088500Y0461000D03*
X0078500Y0461000D03*
X0078500Y0431000D03*
X0088500Y0431000D03*
X0103500Y0431000D03*
X0103500Y0401000D03*
X0088500Y0401000D03*
X0078500Y0401000D03*
X0078500Y0371000D03*
X0088500Y0371000D03*
X0103500Y0371000D03*
X0103500Y0341000D03*
X0088500Y0341000D03*
X0078500Y0341000D03*
X0078500Y0311000D03*
X0088500Y0311000D03*
X0103500Y0311000D03*
X0103500Y0281000D03*
X0088500Y0281000D03*
X0078500Y0281000D03*
X0078500Y0251000D03*
X0088500Y0251000D03*
X0103500Y0251000D03*
X0103500Y0221000D03*
X0088500Y0221000D03*
X0078500Y0221000D03*
D17*
X0326000Y0119000D02*
X0326000Y0113000D01*
X0336000Y0113000D02*
X0336000Y0119000D01*
X0346000Y0119000D02*
X0346000Y0113000D01*
X0356000Y0113000D02*
X0356000Y0119000D01*
X0366000Y0119000D02*
X0366000Y0113000D01*
D18*
X0293500Y0138400D02*
X0293500Y0143600D01*
X0283500Y0143600D02*
X0283500Y0138400D01*
X0273500Y0138400D02*
X0273500Y0143600D01*
X0263500Y0143600D02*
X0263500Y0138400D01*
X0253500Y0138400D02*
X0253500Y0143600D01*
X0243500Y0143600D02*
X0243500Y0138400D01*
X0233500Y0138400D02*
X0233500Y0143600D01*
X0223500Y0143600D02*
X0223500Y0138400D01*
X0223500Y0168400D02*
X0223500Y0173600D01*
X0233500Y0173600D02*
X0233500Y0168400D01*
X0243500Y0168400D02*
X0243500Y0173600D01*
X0253500Y0173600D02*
X0253500Y0168400D01*
X0263500Y0168400D02*
X0263500Y0173600D01*
X0273500Y0173600D02*
X0273500Y0168400D01*
X0283500Y0168400D02*
X0283500Y0173600D01*
X0293500Y0173600D02*
X0293500Y0168400D01*
X0161000Y0168400D02*
X0161000Y0173600D01*
X0151000Y0173600D02*
X0151000Y0168400D01*
X0141000Y0168400D02*
X0141000Y0173600D01*
X0131000Y0173600D02*
X0131000Y0168400D01*
X0121000Y0168400D02*
X0121000Y0173600D01*
X0111000Y0173600D02*
X0111000Y0168400D01*
X0101000Y0168400D02*
X0101000Y0173600D01*
X0091000Y0173600D02*
X0091000Y0168400D01*
X0091000Y0143600D02*
X0091000Y0138400D01*
X0101000Y0138400D02*
X0101000Y0143600D01*
X0111000Y0143600D02*
X0111000Y0138400D01*
X0121000Y0138400D02*
X0121000Y0143600D01*
X0131000Y0143600D02*
X0131000Y0138400D01*
X0141000Y0138400D02*
X0141000Y0143600D01*
X0151000Y0143600D02*
X0151000Y0138400D01*
X0161000Y0138400D02*
X0161000Y0143600D01*
X0118500Y0568400D02*
X0118500Y0573600D01*
X0108500Y0573600D02*
X0108500Y0568400D01*
X0098500Y0568400D02*
X0098500Y0573600D01*
X0088500Y0573600D02*
X0088500Y0568400D01*
X0078500Y0568400D02*
X0078500Y0573600D01*
X0068500Y0573600D02*
X0068500Y0568400D01*
X0058500Y0568400D02*
X0058500Y0573600D01*
X0048500Y0573600D02*
X0048500Y0568400D01*
X0048500Y0598400D02*
X0048500Y0603600D01*
X0058500Y0603600D02*
X0058500Y0598400D01*
X0068500Y0598400D02*
X0068500Y0603600D01*
X0078500Y0603600D02*
X0078500Y0598400D01*
X0088500Y0598400D02*
X0088500Y0603600D01*
X0098500Y0603600D02*
X0098500Y0598400D01*
X0108500Y0598400D02*
X0108500Y0603600D01*
X0118500Y0603600D02*
X0118500Y0598400D01*
X0273500Y0598400D02*
X0273500Y0603600D01*
X0283500Y0603600D02*
X0283500Y0598400D01*
X0293500Y0598400D02*
X0293500Y0603600D01*
X0303500Y0603600D02*
X0303500Y0598400D01*
X0313500Y0598400D02*
X0313500Y0603600D01*
X0323500Y0603600D02*
X0323500Y0598400D01*
X0333500Y0598400D02*
X0333500Y0603600D01*
X0343500Y0603600D02*
X0343500Y0598400D01*
X0343500Y0573600D02*
X0343500Y0568400D01*
X0333500Y0568400D02*
X0333500Y0573600D01*
X0323500Y0573600D02*
X0323500Y0568400D01*
X0313500Y0568400D02*
X0313500Y0573600D01*
X0303500Y0573600D02*
X0303500Y0568400D01*
X0293500Y0568400D02*
X0293500Y0573600D01*
X0283500Y0573600D02*
X0283500Y0568400D01*
X0273500Y0568400D02*
X0273500Y0573600D01*
D19*
X0041000Y0156000D03*
X0041000Y0146000D03*
X0041000Y0136000D03*
D20*
X0016000Y0203500D03*
X0201000Y0171000D03*
X0263500Y0118500D03*
X0303500Y0613500D03*
M02*
